<svg 
  xmlns="http://www.w3.org/2000/svg" 
  xmlns:xlink="http://www.w3.org/1999/xlink" 
  width="500" 
  zoomAndPan="magnify" 
  viewBox="0 0 375 374.999991" 
  height="500" 
  preserveAspectRatio="xMidYMid meet" 
  version="1.0"
  >
  <defs>
    <g />
    <clipPath id="f598b96336">
      <path d="M 114 168 L 233 168 L 233 324 L 114 324 Z M 114 168 " clip-rule="nonzero" />
    </clipPath>
    <clipPath id="9a7ed06c0f">
      <path d="M 139.777344 166.421875 L 240.65625 185.910156 L 213.699219 325.449219 L 112.820312 305.957031 Z M 139.777344 166.421875 " clip-rule="nonzero" />
    </clipPath>
    <clipPath id="eeb31f00b8">
      <path d="M 139.777344 166.421875 L 240.65625 185.910156 L 213.699219 325.449219 L 112.820312 305.957031 Z M 139.777344 166.421875 " clip-rule="nonzero" />
    </clipPath>
    <clipPath id="dd0c881429">
      <path d="M 90 18 L 295 18 L 295 212 L 90 212 Z M 90 18 " clip-rule="nonzero" />
    </clipPath>
    <clipPath id="e9ea2df741">
      <path d="M 118.691406 10.015625 L 320.085938 50.863281 L 287.445312 211.789062 L 86.050781 170.941406 Z M 118.691406 10.015625 " clip-rule="nonzero" />
    </clipPath>
    <clipPath id="a6490da905">
      <path d="M 118.691406 10.015625 L 320.085938 50.863281 L 274.464844 275.785156 L 73.074219 234.9375 Z M 118.691406 10.015625 " clip-rule="nonzero" />
    </clipPath>
    <clipPath id="c67b08eb56">
      <path d="M 69 271 L 263 271 L 263 348 L 69 348 Z M 69 271 " clip-rule="nonzero" />
    </clipPath>
    <clipPath id="ecab95e113">
      <path d="M 65.230469 271.882812 L 262.367188 303.980469 L 252.492188 364.640625 L 55.355469 332.539062 Z M 65.230469 271.882812 " clip-rule="nonzero" />
    </clipPath>
    <clipPath id="daa54685d0">
      <path d="M 91.191406 112.460938 L 288.328125 144.5625 L 252.367188 365.390625 L 55.234375 333.292969 Z M 91.191406 112.460938 " clip-rule="nonzero" />
    </clipPath>
    <clipPath id="b7ba85213e">
      <path d="M 122 245 L 177 245 L 177 298 L 122 298 Z M 122 245 " clip-rule="nonzero" />
    </clipPath>
    <clipPath id="7ff8b5ccdc">
      <path d="M 129.964844 245.996094 L 176.429688 253.40625 L 169.320312 297.976562 L 122.855469 290.5625 Z M 129.964844 245.996094 " clip-rule="nonzero" />
    </clipPath>
    <clipPath id="b6f008184e">
      <path d="M 130.128906 244.957031 L 238.230469 262.203125 L 223.105469 357.027344 L 115.003906 339.785156 Z M 130.128906 244.957031 " clip-rule="nonzero" />
    </clipPath>
    <clipPath id="6756a698d1">
      <path d="M 130.128906 244.957031 L 238.230469 262.203125 L 223.105469 357.027344 L 115.003906 339.785156 Z M 130.128906 244.957031 " clip-rule="nonzero" />
    </clipPath>
    <clipPath id="510cba1ecd">
      <path d="M 175 197 L 230 197 L 230 250 L 175 250 Z M 175 197 " clip-rule="nonzero" />
    </clipPath>
    <clipPath id="1490f5cd1c">
      <path d="M 182.980469 197.84375 L 229.445312 205.257812 L 222.335938 249.824219 L 175.871094 242.414062 Z M 182.980469 197.84375 " clip-rule="nonzero" />
    </clipPath>
    <clipPath id="ca2dd726b5">
      <path d="M 183.144531 196.808594 L 291.246094 214.050781 L 276.121094 308.878906 L 168.019531 291.632812 Z M 183.144531 196.808594 " clip-rule="nonzero" />
    </clipPath>
    <clipPath id="e974a8908d">
      <path d="M 183.144531 196.808594 L 291.246094 214.050781 L 276.121094 308.878906 L 168.019531 291.632812 Z M 183.144531 196.808594 " clip-rule="nonzero" />
    </clipPath>
  </defs>
  <g clip-path="url(#f598b96336)">
    <g clip-path="url(#9a7ed06c0f)">
      <g clip-path="url(#eeb31f00b8)">
        <path fill="#ffffff" d="M 230.882812 219.734375 L 205.699219 182.449219 C 204.148438 180.15625 201.496094 178.394531 198.613281 177.839844 L 150.574219 168.558594 C 144.570312 167.398438 138.839844 171.277344 137.675781 177.289062 L 114.917969 295.089844 C 113.757812 301.101562 117.632812 306.839844 123.636719 308 L 202.902344 323.3125 C 208.90625 324.472656 214.636719 320.59375 215.800781 314.582031 L 232.566406 227.792969 C 233.125 224.90625 232.433594 222.03125 230.882812 219.734375 Z M 203.121094 215.121094 C 200.722656 214.65625 199.171875 212.363281 199.636719 209.957031 L 203.910156 187.839844 L 225.21875 219.390625 Z M 203.121094 215.121094 " fill-opacity="1" fill-rule="nonzero" />
      </g>
    </g>
  </g>
  <g clip-path="url(#dd0c881429)">
    <g clip-path="url(#e9ea2df741)">
      <g clip-path="url(#a6490da905)">
        <path fill="#57e0ab" d="M 292.898438 183.207031 C 293.078125 180.371094 293.140625 177.53125 293.089844 174.691406 C 293.035156 171.847656 292.863281 169.015625 292.574219 166.1875 C 292.289062 163.359375 291.882812 160.546875 291.359375 157.753906 C 290.839844 154.957031 290.203125 152.191406 289.453125 149.449219 C 288.699219 146.707031 287.835938 144 286.863281 141.328125 C 285.886719 138.65625 284.800781 136.03125 283.609375 133.449219 C 282.414062 130.867188 281.117188 128.339844 279.714844 125.867188 C 278.3125 123.390625 276.808594 120.980469 275.207031 118.628906 C 273.605469 116.28125 271.90625 114 270.117188 111.789062 C 268.324219 109.578125 266.445312 107.445312 264.476562 105.390625 C 262.507812 103.335938 260.460938 101.363281 258.328125 99.480469 C 256.195312 97.59375 253.992188 95.796875 251.710938 94.09375 C 249.429688 92.390625 247.082031 90.785156 244.671875 89.273438 C 242.257812 87.761719 239.785156 86.355469 237.257812 85.050781 C 234.726562 83.742188 232.148438 82.542969 229.519531 81.453125 C 226.890625 80.359375 224.21875 79.375 221.507812 78.503906 C 219.53125 77.667969 217.492188 77.035156 215.390625 76.605469 L 215.363281 76.734375 C 213.71875 76.3125 212.066406 75.933594 210.402344 75.59375 C 208.863281 75.28125 207.316406 75.003906 205.765625 74.765625 C 204.214844 74.523438 202.65625 74.316406 201.09375 74.144531 C 199.535156 73.972656 197.96875 73.839844 196.402344 73.738281 C 194.832031 73.640625 193.265625 73.574219 191.695312 73.546875 C 190.125 73.519531 188.554688 73.527344 186.984375 73.570312 C 185.414062 73.613281 183.84375 73.695312 182.277344 73.808594 C 180.710938 73.921875 179.148438 74.074219 177.589844 74.261719 C 176.03125 74.445312 174.476562 74.667969 172.925781 74.925781 C 171.378906 75.183594 169.835938 75.476562 168.296875 75.800781 C 166.761719 76.128906 165.234375 76.492188 163.714844 76.890625 C 162.195312 77.285156 160.6875 77.71875 159.1875 78.183594 C 157.6875 78.648438 156.199219 79.148438 154.722656 79.683594 C 153.246094 80.214844 151.785156 80.78125 150.332031 81.382812 C 148.882812 81.984375 147.445312 82.617188 146.023438 83.28125 C 144.601562 83.949219 143.199219 84.644531 141.808594 85.375 C 140.417969 86.105469 139.046875 86.867188 137.691406 87.660156 C 136.335938 88.453125 135 89.273438 133.683594 90.128906 C 132.367188 90.980469 131.070312 91.863281 129.792969 92.777344 C 128.515625 93.691406 127.261719 94.628906 126.027344 95.601562 C 124.792969 96.570312 123.582031 97.566406 122.394531 98.59375 C 121.207031 99.617188 120.042969 100.667969 118.902344 101.746094 C 117.765625 102.824219 116.648438 103.929688 115.558594 105.058594 C 114.472656 106.1875 113.40625 107.339844 112.371094 108.515625 C 111.335938 109.695312 110.324219 110.894531 109.34375 112.117188 C 108.363281 113.339844 107.410156 114.585938 106.484375 115.851562 C 105.558594 117.121094 104.664062 118.40625 103.800781 119.714844 C 102.933594 121.023438 102.097656 122.347656 101.292969 123.695312 C 100.488281 125.039062 99.714844 126.402344 98.972656 127.785156 C 98.230469 129.164062 97.519531 130.5625 96.839844 131.976562 C 96.160156 133.390625 95.515625 134.820312 94.902344 136.261719 C 94.289062 137.703125 93.707031 139.160156 93.160156 140.628906 C 92.613281 142.101562 92.101562 143.582031 91.621094 145.074219 L 90.734375 147.863281 L 93.480469 146.816406 C 95.722656 145.972656 98.042969 145.457031 100.433594 145.269531 C 102.828125 145.082031 105.199219 145.230469 107.550781 145.71875 C 116.304688 147.496094 123.339844 153.488281 125.914062 161.359375 L 126.691406 163.726562 L 128.328125 161.847656 C 133.765625 155.601562 142.585938 152.824219 151.339844 154.601562 C 160.097656 156.375 167.136719 162.371094 169.714844 170.242188 L 170.484375 172.609375 L 172.125 170.730469 C 173.152344 169.585938 174.28125 168.554688 175.515625 167.636719 C 176.746094 166.71875 178.058594 165.929688 179.449219 165.269531 C 180.839844 164.609375 182.28125 164.09375 183.773438 163.71875 C 185.265625 163.347656 186.78125 163.125 188.320312 163.050781 L 173.640625 235.433594 C 173.496094 236.140625 173.285156 236.828125 173.003906 237.496094 C 172.726562 238.164062 172.382812 238.796875 171.980469 239.394531 C 171.574219 239.996094 171.117188 240.546875 170.601562 241.058594 C 170.089844 241.566406 169.53125 242.019531 168.925781 242.417969 C 168.324219 242.816406 167.6875 243.15625 167.019531 243.429688 C 166.347656 243.703125 165.65625 243.90625 164.945312 244.046875 C 164.238281 244.183594 163.519531 244.25 162.796875 244.25 C 162.070312 244.246094 161.355469 244.171875 160.644531 244.027344 C 159.9375 243.882812 159.246094 243.671875 158.578125 243.394531 C 157.910156 243.113281 157.277344 242.773438 156.675781 242.367188 C 156.074219 241.964844 155.519531 241.507812 155.011719 240.992188 C 154.5 240.480469 154.042969 239.921875 153.644531 239.320312 C 153.246094 238.71875 152.90625 238.082031 152.632812 237.414062 C 152.355469 236.742188 152.148438 236.054688 152.011719 235.34375 C 151.871094 234.636719 151.804688 233.917969 151.808594 233.195312 C 151.808594 232.472656 151.882812 231.757812 152.027344 231.050781 L 153.035156 226.074219 C 153.089844 225.800781 153.117188 225.523438 153.121094 225.246094 C 153.121094 224.96875 153.09375 224.691406 153.042969 224.421875 C 152.988281 224.148438 152.910156 223.882812 152.800781 223.625 C 152.695312 223.367188 152.566406 223.125 152.414062 222.890625 C 152.257812 222.660156 152.085938 222.445312 151.886719 222.25 C 151.691406 222.050781 151.476562 221.875 151.246094 221.71875 C 151.015625 221.5625 150.773438 221.433594 150.515625 221.324219 C 150.257812 221.21875 149.992188 221.136719 149.722656 221.082031 C 149.449219 221.027344 149.171875 220.996094 148.894531 220.996094 C 148.613281 220.996094 148.339844 221.019531 148.066406 221.074219 C 147.792969 221.128906 147.527344 221.207031 147.269531 221.3125 C 147.011719 221.417969 146.765625 221.546875 146.535156 221.699219 C 146.304688 221.851562 146.089844 222.027344 145.890625 222.222656 C 145.691406 222.417969 145.515625 222.632812 145.359375 222.863281 C 145.207031 223.09375 145.074219 223.335938 144.96875 223.59375 C 144.859375 223.847656 144.777344 224.113281 144.722656 224.386719 L 143.714844 229.363281 C 143.585938 229.988281 143.492188 230.621094 143.425781 231.253906 C 143.359375 231.886719 143.328125 232.523438 143.324219 233.160156 C 143.324219 233.800781 143.351562 234.4375 143.414062 235.070312 C 143.472656 235.707031 143.566406 236.335938 143.6875 236.960938 C 143.808594 237.589844 143.960938 238.207031 144.144531 238.816406 C 144.328125 239.429688 144.542969 240.03125 144.785156 240.621094 C 145.027344 241.210938 145.296875 241.789062 145.597656 242.351562 C 145.898438 242.914062 146.222656 243.460938 146.578125 243.992188 C 146.929688 244.527344 147.308594 245.039062 147.710938 245.535156 C 148.113281 246.027344 148.542969 246.503906 148.992188 246.953125 C 149.441406 247.40625 149.914062 247.835938 150.40625 248.246094 C 150.898438 248.652344 151.410156 249.03125 151.941406 249.390625 C 152.46875 249.746094 153.015625 250.074219 153.578125 250.378906 C 154.140625 250.679688 154.71875 250.957031 155.308594 251.203125 C 155.894531 251.449219 156.496094 251.664062 157.105469 251.855469 C 157.71875 252.042969 158.335938 252.199219 158.960938 252.324219 C 159.589844 252.453125 160.21875 252.546875 160.855469 252.613281 C 161.492188 252.679688 162.128906 252.710938 162.765625 252.714844 C 163.40625 252.71875 164.042969 252.6875 164.679688 252.628906 C 165.316406 252.570312 165.945312 252.480469 166.574219 252.355469 C 167.199219 252.234375 167.820312 252.082031 168.433594 251.898438 C 169.042969 251.71875 169.644531 251.503906 170.238281 251.265625 C 170.828125 251.023438 171.40625 250.753906 171.96875 250.453125 C 172.535156 250.15625 173.082031 249.832031 173.617188 249.476562 C 174.148438 249.125 174.660156 248.75 175.15625 248.347656 C 175.652344 247.945312 176.125 247.519531 176.578125 247.070312 C 177.03125 246.621094 177.464844 246.148438 177.871094 245.65625 C 178.277344 245.167969 178.660156 244.65625 179.015625 244.128906 C 179.371094 243.597656 179.703125 243.054688 180.003906 242.492188 C 180.308594 241.929688 180.582031 241.355469 180.828125 240.769531 C 181.078125 240.179688 181.292969 239.582031 181.480469 238.972656 C 181.667969 238.363281 181.824219 237.746094 181.953125 237.121094 L 196.804688 163.886719 C 204.789062 166.039062 211.109375 171.761719 213.523438 179.132812 L 214.300781 181.5 L 215.933594 179.621094 C 221.371094 173.375 230.191406 170.597656 238.945312 172.375 C 247.703125 174.152344 254.742188 180.144531 257.320312 188.015625 L 258.089844 190.382812 L 259.730469 188.503906 C 265.167969 182.257812 273.984375 179.480469 282.746094 181.257812 C 285.59375 181.832031 288.273438 182.855469 290.777344 184.332031 L 292.753906 185.5 Z M 108.125 142.960938 C 103.789062 142.070312 99.476562 142.183594 95.195312 143.304688 C 96.078125 140.796875 97.058594 138.328125 98.136719 135.898438 C 99.21875 133.46875 100.390625 131.082031 101.660156 128.746094 C 102.929688 126.410156 104.289062 124.128906 105.742188 121.898438 C 107.195312 119.671875 108.730469 117.503906 110.355469 115.398438 C 111.980469 113.292969 113.6875 111.253906 115.472656 109.28125 C 117.261719 107.3125 119.121094 105.414062 121.0625 103.59375 C 123 101.769531 125.007812 100.027344 127.085938 98.367188 C 129.160156 96.703125 131.300781 95.125 133.503906 93.632812 C 135.707031 92.140625 137.96875 90.738281 140.28125 89.421875 C 142.597656 88.109375 144.960938 86.890625 147.375 85.765625 C 149.789062 84.640625 152.242188 83.613281 154.734375 82.683594 C 157.230469 81.753906 159.757812 80.921875 162.320312 80.191406 C 164.878906 79.464844 167.464844 78.835938 170.078125 78.3125 C 172.6875 77.789062 175.316406 77.371094 177.960938 77.054688 C 180.605469 76.738281 183.257812 76.53125 185.921875 76.425781 C 188.582031 76.320312 191.242188 76.324219 193.90625 76.429688 C 188.457031 78.035156 182.929688 80.933594 177.371094 85.125 C 168.515625 91.804688 159.566406 101.777344 150.691406 114.742188 C 138.898438 132.023438 130.4375 150.1875 127.300781 157.292969 C 123.753906 150.066406 116.660156 144.691406 108.125 142.960938 Z M 151.90625 151.839844 C 150.128906 151.464844 148.332031 151.265625 146.515625 151.242188 C 144.699219 151.21875 142.898438 151.375 141.113281 151.707031 C 139.324219 152.039062 137.589844 152.542969 135.902344 153.21875 C 134.21875 153.894531 132.613281 154.726562 131.09375 155.71875 C 134.859375 147.457031 142.644531 131.527344 153.039062 116.296875 C 175.96875 82.703125 194.859375 76.566406 207.332031 77.964844 C 204.867188 80.921875 200.078125 87.222656 194.421875 97.628906 C 187.332031 110.6875 177.582031 132.84375 170.582031 165.210938 C 166.886719 158.46875 160.070312 153.496094 151.917969 151.84375 Z M 197.132812 161.058594 C 196.65625 160.964844 196.1875 160.824219 195.703125 160.722656 C 193.472656 160.273438 191.222656 160.085938 188.945312 160.160156 C 186.121094 160.238281 183.378906 160.75 180.714844 161.699219 C 178.054688 162.644531 175.605469 163.980469 173.371094 165.703125 C 185.78125 108.367188 207.027344 82.535156 210.589844 78.523438 C 211.75 78.757812 212.902344 79.027344 214.050781 79.3125 C 214.894531 81.785156 217.351562 89.945312 218.667969 103.554688 C 220.070312 118.109375 220.394531 141.941406 214.328125 174.011719 C 213.414062 172.40625 212.34375 170.910156 211.121094 169.519531 C 209.898438 168.132812 208.546875 166.882812 207.070312 165.769531 C 205.59375 164.65625 204.019531 163.703125 202.347656 162.910156 C 200.675781 162.117188 198.941406 161.5 197.140625 161.0625 Z M 239.496094 169.605469 C 231.34375 167.953125 223.128906 169.875 217.085938 174.644531 C 223.253906 142.105469 222.90625 117.902344 221.460938 103.113281 C 220.347656 91.546875 218.429688 83.925781 217.300781 80.183594 C 218.394531 80.492188 219.4375 80.800781 220.5 81.144531 C 239.011719 89.035156 247.992188 115.003906 252.308594 136.429688 C 255.945312 154.507812 256.90625 172.210938 257.15625 181.285156 C 256.140625 179.78125 254.988281 178.390625 253.699219 177.113281 C 252.410156 175.835938 251.007812 174.695312 249.496094 173.691406 C 247.980469 172.691406 246.382812 171.847656 244.703125 171.160156 C 243.023438 170.472656 241.289062 169.957031 239.507812 169.609375 Z M 283.277344 178.484375 C 274.742188 176.753906 266.136719 178.941406 260.03125 184.210938 C 259.914062 176.449219 259.195312 156.398438 255.066406 135.914062 C 251.96875 120.519531 247.585938 107.84375 242.035156 98.238281 C 239.460938 93.667969 236.300781 89.550781 232.550781 85.878906 C 234.773438 86.921875 236.957031 88.046875 239.097656 89.25 C 241.238281 90.453125 243.332031 91.734375 245.378906 93.089844 C 247.425781 94.445312 249.417969 95.875 251.359375 97.378906 C 253.300781 98.882812 255.1875 100.453125 257.011719 102.09375 C 258.839844 103.734375 260.601562 105.441406 262.304688 107.210938 C 264.003906 108.980469 265.636719 110.808594 267.203125 112.699219 C 268.769531 114.585938 270.265625 116.53125 271.691406 118.53125 C 273.113281 120.527344 274.460938 122.578125 275.734375 124.675781 C 277.007812 126.773438 278.203125 128.914062 279.320312 131.097656 C 280.4375 133.28125 281.46875 135.503906 282.421875 137.765625 C 283.375 140.027344 284.242188 142.316406 285.027344 144.640625 C 285.8125 146.964844 286.507812 149.316406 287.121094 151.691406 C 287.730469 154.066406 288.253906 156.460938 288.691406 158.871094 C 289.125 161.285156 289.472656 163.710938 289.730469 166.148438 C 289.988281 168.589844 290.152344 171.03125 290.230469 173.484375 C 290.308594 175.933594 290.296875 178.382812 290.191406 180.832031 C 287.996094 179.761719 285.699219 178.980469 283.304688 178.492188 Z M 149.171875 29.773438 C 149.929688 29.929688 150.691406 29.9375 151.453125 29.792969 C 152.210938 29.648438 152.917969 29.363281 153.5625 28.9375 C 155.898438 27.394531 158.007812 21.253906 158.425781 20.042969 L 159.023438 18.320312 L 157.230469 18.175781 C 155.953125 18.070312 149.457031 17.636719 147.125 19.175781 C 146.644531 19.496094 146.21875 19.878906 145.847656 20.324219 C 145.480469 20.769531 145.183594 21.257812 144.960938 21.789062 C 144.738281 22.324219 144.597656 22.878906 144.539062 23.453125 C 144.480469 24.027344 144.503906 24.597656 144.617188 25.164062 C 144.726562 25.730469 144.917969 26.269531 145.1875 26.78125 C 145.460938 27.292969 145.800781 27.753906 146.207031 28.164062 C 146.617188 28.574219 147.074219 28.914062 147.585938 29.191406 C 148.09375 29.464844 148.632812 29.660156 149.199219 29.773438 Z M 148.667969 21.527344 C 149.507812 20.996094 152.371094 20.800781 155.144531 20.882812 C 154.144531 23.46875 152.851562 26.023438 152.027344 26.585938 C 151.691406 26.808594 151.324219 26.957031 150.929688 27.035156 C 150.535156 27.113281 150.140625 27.109375 149.746094 27.03125 C 149.351562 26.949219 148.984375 26.796875 148.652344 26.574219 C 148.316406 26.347656 148.039062 26.066406 147.816406 25.734375 C 147.59375 25.398438 147.441406 25.03125 147.367188 24.636719 C 147.289062 24.242188 147.289062 23.847656 147.371094 23.453125 C 147.449219 23.058594 147.601562 22.695312 147.828125 22.363281 C 148.050781 22.027344 148.332031 21.75 148.667969 21.527344 Z M 182.988281 36.628906 C 183.746094 36.785156 184.507812 36.789062 185.269531 36.644531 C 186.03125 36.5 186.734375 36.214844 187.382812 35.789062 C 189.714844 34.246094 191.824219 28.105469 192.246094 26.894531 L 192.828125 25.175781 L 191.035156 25.03125 C 189.757812 24.925781 183.261719 24.492188 180.929688 26.035156 C 180.449219 26.351562 180.023438 26.734375 179.65625 27.179688 C 179.285156 27.625 178.988281 28.113281 178.765625 28.648438 C 178.542969 29.179688 178.402344 29.734375 178.34375 30.308594 C 178.285156 30.882812 178.308594 31.453125 178.421875 32.023438 C 178.53125 32.589844 178.722656 33.128906 178.996094 33.636719 C 179.265625 34.148438 179.605469 34.609375 180.011719 35.019531 C 180.421875 35.429688 180.878906 35.773438 181.390625 36.046875 C 181.898438 36.320312 182.4375 36.515625 183.003906 36.628906 Z M 182.472656 28.386719 C 183.300781 27.84375 186.160156 27.652344 188.953125 27.742188 C 187.949219 30.324219 186.65625 32.878906 185.832031 33.445312 C 185.496094 33.664062 185.132812 33.816406 184.734375 33.890625 C 184.339844 33.96875 183.945312 33.964844 183.550781 33.886719 C 183.15625 33.804688 182.792969 33.652344 182.457031 33.429688 C 182.125 33.203125 181.84375 32.925781 181.621094 32.589844 C 181.398438 32.253906 181.25 31.886719 181.171875 31.492188 C 181.09375 31.097656 181.097656 30.703125 181.175781 30.308594 C 181.253906 29.917969 181.40625 29.550781 181.632812 29.21875 C 181.859375 28.886719 182.136719 28.609375 182.472656 28.386719 Z M 216.792969 43.484375 C 217.554688 43.640625 218.3125 43.648438 219.074219 43.503906 C 219.835938 43.355469 220.539062 43.074219 221.1875 42.648438 C 223.519531 41.105469 225.632812 34.960938 226.050781 33.75 L 226.636719 32.03125 L 224.839844 31.886719 C 223.5625 31.785156 217.070312 31.347656 214.738281 32.890625 C 214.253906 33.210938 213.828125 33.589844 213.460938 34.035156 C 213.089844 34.480469 212.796875 34.96875 212.570312 35.503906 C 212.347656 36.035156 212.207031 36.589844 212.148438 37.164062 C 212.089844 37.738281 212.117188 38.3125 212.226562 38.878906 C 212.339844 39.445312 212.53125 39.984375 212.800781 40.496094 C 213.070312 41.003906 213.410156 41.464844 213.820312 41.875 C 214.226562 42.285156 214.6875 42.628906 215.195312 42.902344 C 215.707031 43.175781 216.242188 43.371094 216.8125 43.488281 Z M 216.28125 35.242188 C 217.105469 34.699219 219.964844 34.507812 222.757812 34.597656 C 221.753906 37.179688 220.460938 39.734375 219.640625 40.300781 C 219.304688 40.523438 218.9375 40.671875 218.542969 40.75 C 218.144531 40.824219 217.75 40.824219 217.355469 40.742188 C 216.960938 40.664062 216.597656 40.511719 216.261719 40.285156 C 215.929688 40.0625 215.648438 39.78125 215.425781 39.445312 C 215.203125 39.109375 215.054688 38.746094 214.976562 38.351562 C 214.898438 37.957031 214.902344 37.5625 214.980469 37.167969 C 215.0625 36.773438 215.214844 36.410156 215.4375 36.074219 C 215.664062 35.742188 215.945312 35.464844 216.28125 35.242188 Z M 250.601562 50.339844 C 251.359375 50.496094 252.121094 50.503906 252.878906 50.359375 C 253.640625 50.214844 254.347656 49.929688 254.992188 49.503906 C 257.324219 47.960938 259.4375 41.816406 259.855469 40.609375 L 260.441406 38.890625 L 258.648438 38.742188 C 257.371094 38.640625 250.875 38.203125 248.542969 39.746094 C 248.058594 40.066406 247.632812 40.449219 247.265625 40.894531 C 246.898438 41.339844 246.601562 41.828125 246.378906 42.359375 C 246.152344 42.894531 246.011719 43.445312 245.953125 44.023438 C 245.894531 44.597656 245.921875 45.167969 246.03125 45.734375 C 246.144531 46.300781 246.335938 46.839844 246.605469 47.351562 C 246.878906 47.863281 247.21875 48.324219 247.625 48.734375 C 248.03125 49.144531 248.492188 49.484375 249 49.757812 C 249.511719 50.035156 250.050781 50.230469 250.617188 50.34375 Z M 250.085938 42.097656 C 250.910156 41.558594 253.769531 41.367188 256.5625 41.453125 C 255.558594 44.039062 254.269531 46.59375 253.445312 47.15625 C 253.109375 47.378906 252.742188 47.527344 252.347656 47.605469 C 251.953125 47.683594 251.558594 47.679688 251.160156 47.601562 C 250.765625 47.519531 250.402344 47.367188 250.066406 47.140625 C 249.734375 46.917969 249.457031 46.636719 249.234375 46.300781 C 249.011719 45.96875 248.859375 45.601562 248.78125 45.207031 C 248.707031 44.8125 248.707031 44.417969 248.785156 44.023438 C 248.867188 43.628906 249.019531 43.265625 249.242188 42.933594 C 249.46875 42.597656 249.75 42.320312 250.085938 42.097656 Z M 284.40625 57.195312 C 285.164062 57.355469 285.925781 57.359375 286.6875 57.214844 C 287.449219 57.070312 288.152344 56.785156 288.800781 56.359375 C 291.132812 54.816406 293.242188 48.675781 293.660156 47.464844 L 294.246094 45.746094 L 292.453125 45.601562 C 291.175781 45.496094 284.679688 45.0625 282.347656 46.601562 C 281.867188 46.921875 281.441406 47.304688 281.070312 47.75 C 280.703125 48.195312 280.40625 48.683594 280.183594 49.214844 C 279.960938 49.75 279.820312 50.304688 279.761719 50.878906 C 279.703125 51.453125 279.726562 52.023438 279.839844 52.589844 C 279.949219 53.160156 280.140625 53.695312 280.410156 54.207031 C 280.683594 54.71875 281.023438 55.179688 281.429688 55.589844 C 281.839844 56 282.296875 56.339844 282.808594 56.617188 C 283.316406 56.890625 283.855469 57.085938 284.421875 57.199219 Z M 283.890625 48.953125 C 284.714844 48.414062 287.578125 48.222656 290.367188 48.3125 C 289.367188 50.894531 288.074219 53.449219 287.25 54.011719 C 286.914062 54.234375 286.546875 54.382812 286.152344 54.460938 C 285.757812 54.539062 285.363281 54.535156 284.96875 54.457031 C 284.574219 54.375 284.207031 54.222656 283.875 54 C 283.539062 53.773438 283.261719 53.492188 283.039062 53.160156 C 282.816406 52.824219 282.664062 52.457031 282.589844 52.0625 C 282.511719 51.667969 282.511719 51.273438 282.59375 50.878906 C 282.671875 50.484375 282.824219 50.121094 283.050781 49.789062 C 283.273438 49.453125 283.554688 49.175781 283.890625 48.953125 Z M 160.671875 55.710938 C 161.429688 55.871094 162.191406 55.875 162.953125 55.730469 C 163.714844 55.585938 164.417969 55.300781 165.066406 54.875 C 167.398438 53.332031 169.507812 47.191406 169.925781 45.980469 L 170.492188 44.273438 L 168.699219 44.128906 C 167.421875 44.027344 160.925781 43.589844 158.59375 45.132812 C 158.113281 45.449219 157.6875 45.832031 157.316406 46.277344 C 156.949219 46.722656 156.652344 47.210938 156.429688 47.746094 C 156.207031 48.277344 156.066406 48.832031 156.003906 49.40625 C 155.945312 49.980469 155.972656 50.550781 156.085938 51.121094 C 156.195312 51.6875 156.386719 52.226562 156.65625 52.738281 C 156.929688 53.246094 157.269531 53.707031 157.675781 54.117188 C 158.085938 54.527344 158.542969 54.871094 159.054688 55.144531 C 159.5625 55.417969 160.101562 55.613281 160.667969 55.730469 Z M 160.140625 47.46875 C 160.964844 46.925781 163.824219 46.734375 166.617188 46.824219 C 165.613281 49.40625 164.324219 51.960938 163.5 52.523438 C 163.164062 52.746094 162.796875 52.898438 162.402344 52.972656 C 162.007812 53.050781 161.613281 53.046875 161.214844 52.96875 C 160.820312 52.886719 160.457031 52.734375 160.121094 52.511719 C 159.789062 52.285156 159.511719 52.007812 159.289062 51.671875 C 159.066406 51.335938 158.914062 50.96875 158.835938 50.574219 C 158.761719 50.179688 158.761719 49.785156 158.839844 49.390625 C 158.921875 48.996094 159.074219 48.632812 159.296875 48.300781 C 159.523438 47.96875 159.804688 47.6875 160.140625 47.46875 Z M 126.867188 48.855469 C 127.625 49.011719 128.386719 49.019531 129.144531 48.875 C 129.90625 48.730469 130.613281 48.445312 131.257812 48.019531 C 133.589844 46.476562 135.703125 40.332031 136.121094 39.125 L 136.691406 37.402344 L 134.894531 37.257812 C 133.617188 37.152344 127.125 36.714844 124.792969 38.257812 C 124.308594 38.578125 123.882812 38.960938 123.515625 39.40625 C 123.144531 39.851562 122.851562 40.339844 122.625 40.871094 C 122.402344 41.40625 122.261719 41.957031 122.203125 42.535156 C 122.144531 43.109375 122.171875 43.679688 122.28125 44.246094 C 122.394531 44.8125 122.585938 45.351562 122.855469 45.863281 C 123.125 46.375 123.464844 46.835938 123.875 47.246094 C 124.28125 47.65625 124.742188 47.996094 125.25 48.273438 C 125.761719 48.546875 126.296875 48.742188 126.867188 48.855469 Z M 126.335938 40.609375 C 127.160156 40.070312 130.019531 39.878906 132.8125 39.964844 C 131.808594 42.550781 130.519531 45.105469 129.695312 45.667969 C 129.359375 45.890625 128.992188 46.039062 128.597656 46.117188 C 128.199219 46.195312 127.804688 46.191406 127.410156 46.113281 C 127.015625 46.03125 126.652344 45.878906 126.316406 45.65625 C 125.984375 45.429688 125.703125 45.148438 125.480469 44.8125 C 125.257812 44.480469 125.109375 44.113281 125.03125 43.71875 C 124.953125 43.324219 124.957031 42.929688 125.035156 42.535156 C 125.117188 42.140625 125.269531 41.777344 125.492188 41.445312 C 125.71875 41.109375 126 40.832031 126.335938 40.609375 Z M 194.476562 62.570312 C 195.238281 62.726562 195.996094 62.730469 196.757812 62.585938 C 197.519531 62.441406 198.222656 62.15625 198.871094 61.730469 C 201.203125 60.191406 203.3125 54.046875 203.734375 52.835938 L 204.296875 51.128906 L 202.503906 50.984375 C 201.226562 50.882812 194.730469 50.445312 192.398438 51.988281 C 191.917969 52.308594 191.492188 52.691406 191.121094 53.132812 C 190.753906 53.578125 190.457031 54.070312 190.234375 54.601562 C 190.011719 55.132812 189.871094 55.6875 189.8125 56.261719 C 189.753906 56.839844 189.777344 57.410156 189.890625 57.976562 C 190 58.542969 190.191406 59.082031 190.464844 59.59375 C 190.734375 60.105469 191.074219 60.5625 191.480469 60.972656 C 191.890625 61.382812 192.347656 61.726562 192.859375 62 C 193.367188 62.277344 193.90625 62.46875 194.472656 62.585938 Z M 193.945312 54.324219 C 194.769531 53.78125 197.632812 53.589844 200.421875 53.679688 C 199.421875 56.261719 198.128906 58.816406 197.304688 59.382812 C 196.96875 59.605469 196.601562 59.753906 196.207031 59.828125 C 195.8125 59.90625 195.417969 59.90625 195.023438 59.824219 C 194.628906 59.746094 194.261719 59.59375 193.929688 59.367188 C 193.59375 59.144531 193.316406 58.863281 193.09375 58.527344 C 192.871094 58.191406 192.71875 57.828125 192.644531 57.433594 C 192.566406 57.039062 192.566406 56.644531 192.648438 56.25 C 192.726562 55.855469 192.878906 55.492188 193.105469 55.15625 C 193.328125 54.824219 193.609375 54.546875 193.945312 54.324219 Z M 228.265625 69.421875 C 229.027344 69.578125 229.785156 69.585938 230.546875 69.441406 C 231.308594 69.296875 232.011719 69.011719 232.660156 68.585938 C 234.992188 67.042969 237.101562 60.898438 237.523438 59.6875 L 238.085938 57.984375 L 236.292969 57.839844 C 235.015625 57.734375 228.519531 57.300781 226.1875 58.839844 C 225.707031 59.160156 225.28125 59.542969 224.910156 59.988281 C 224.542969 60.433594 224.246094 60.921875 224.023438 61.453125 C 223.800781 61.988281 223.660156 62.542969 223.601562 63.117188 C 223.542969 63.691406 223.566406 64.261719 223.679688 64.828125 C 223.789062 65.398438 223.980469 65.9375 224.253906 66.445312 C 224.523438 66.957031 224.863281 67.417969 225.269531 67.828125 C 225.679688 68.238281 226.136719 68.582031 226.648438 68.855469 C 227.15625 69.128906 227.695312 69.324219 228.261719 69.4375 Z M 227.75 61.179688 C 228.578125 60.640625 231.4375 60.449219 234.230469 60.535156 C 233.226562 63.121094 231.933594 65.675781 231.109375 66.238281 C 230.773438 66.460938 230.410156 66.609375 230.015625 66.6875 C 229.617188 66.761719 229.222656 66.761719 228.828125 66.683594 C 228.433594 66.601562 228.070312 66.449219 227.734375 66.222656 C 227.398438 66 227.121094 65.71875 226.898438 65.382812 C 226.675781 65.046875 226.527344 64.683594 226.449219 64.289062 C 226.371094 63.894531 226.371094 63.5 226.453125 63.105469 C 226.53125 62.710938 226.683594 62.347656 226.910156 62.011719 C 227.136719 61.679688 227.414062 61.402344 227.75 61.179688 Z M 262.070312 76.277344 C 262.832031 76.4375 263.589844 76.441406 264.351562 76.296875 C 265.113281 76.152344 265.816406 75.867188 266.464844 75.441406 C 268.796875 73.898438 270.910156 67.757812 271.328125 66.546875 L 271.894531 64.839844 L 270.097656 64.695312 C 268.820312 64.59375 262.328125 64.15625 259.996094 65.699219 C 259.511719 66.015625 259.085938 66.398438 258.71875 66.84375 C 258.347656 67.289062 258.054688 67.777344 257.828125 68.3125 C 257.605469 68.84375 257.464844 69.398438 257.40625 69.972656 C 257.347656 70.546875 257.375 71.117188 257.484375 71.6875 C 257.597656 72.253906 257.785156 72.792969 258.058594 73.304688 C 258.328125 73.8125 258.667969 74.273438 259.078125 74.683594 C 259.484375 75.09375 259.945312 75.4375 260.453125 75.710938 C 260.964844 75.984375 261.5 76.179688 262.070312 76.296875 Z M 261.558594 68.035156 C 262.382812 67.496094 265.242188 67.304688 268.035156 67.390625 C 267.03125 69.976562 265.742188 72.53125 264.917969 73.09375 C 264.582031 73.316406 264.214844 73.464844 263.820312 73.542969 C 263.425781 73.621094 263.027344 73.617188 262.632812 73.539062 C 262.238281 73.457031 261.875 73.304688 261.539062 73.082031 C 261.207031 72.855469 260.925781 72.574219 260.703125 72.242188 C 260.480469 71.90625 260.332031 71.539062 260.253906 71.144531 C 260.175781 70.75 260.179688 70.355469 260.257812 69.960938 C 260.339844 69.566406 260.492188 69.203125 260.714844 68.871094 C 260.941406 68.535156 261.222656 68.257812 261.558594 68.035156 Z M 139.855469 75.851562 C 140.613281 76.007812 141.375 76.015625 142.136719 75.867188 C 142.894531 75.722656 143.601562 75.4375 144.246094 75.011719 C 146.582031 73.472656 148.691406 67.328125 149.109375 66.117188 L 149.675781 64.414062 L 147.882812 64.265625 C 146.601562 64.175781 140.113281 63.710938 137.777344 65.265625 C 137.296875 65.582031 136.871094 65.964844 136.5 66.410156 C 136.132812 66.855469 135.835938 67.34375 135.613281 67.878906 C 135.390625 68.410156 135.25 68.964844 135.191406 69.539062 C 135.132812 70.113281 135.15625 70.683594 135.269531 71.253906 C 135.378906 71.820312 135.570312 72.359375 135.839844 72.867188 C 136.113281 73.378906 136.453125 73.839844 136.859375 74.25 C 137.269531 74.660156 137.726562 75.003906 138.238281 75.277344 C 138.746094 75.550781 139.285156 75.746094 139.851562 75.859375 Z M 139.324219 67.605469 C 140.148438 67.0625 143.007812 66.871094 145.800781 66.960938 C 144.796875 69.542969 143.507812 72.097656 142.683594 72.664062 C 142.171875 73 141.609375 73.167969 141 73.164062 C 140.386719 73.160156 139.828125 72.988281 139.320312 72.648438 C 138.8125 72.304688 138.445312 71.851562 138.210938 71.285156 C 137.980469 70.722656 137.925781 70.140625 138.046875 69.539062 C 138.199219 68.71875 138.625 68.070312 139.324219 67.605469 Z M 275.0625 103.273438 C 275.820312 103.429688 276.578125 103.4375 277.339844 103.292969 C 278.101562 103.148438 278.808594 102.863281 279.453125 102.4375 C 281.785156 100.894531 283.898438 94.75 284.316406 93.539062 L 284.882812 91.835938 L 283.085938 91.691406 C 281.824219 91.601562 275.335938 91.136719 273 92.691406 C 272.519531 93.007812 272.09375 93.390625 271.722656 93.835938 C 271.355469 94.28125 271.058594 94.769531 270.835938 95.304688 C 270.613281 95.835938 270.472656 96.390625 270.414062 96.964844 C 270.355469 97.539062 270.378906 98.109375 270.492188 98.679688 C 270.601562 99.246094 270.792969 99.785156 271.066406 100.296875 C 271.335938 100.804688 271.675781 101.265625 272.082031 101.675781 C 272.492188 102.085938 272.949219 102.429688 273.460938 102.703125 C 273.96875 102.976562 274.507812 103.171875 275.074219 103.289062 Z M 274.546875 95.03125 C 275.371094 94.488281 278.230469 94.296875 281.023438 94.386719 C 280.019531 96.96875 278.730469 99.523438 277.90625 100.089844 C 277.394531 100.425781 276.832031 100.59375 276.222656 100.589844 C 275.609375 100.585938 275.050781 100.414062 274.542969 100.074219 C 274.035156 99.730469 273.667969 99.277344 273.433594 98.710938 C 273.203125 98.148438 273.148438 97.566406 273.269531 96.964844 C 273.421875 96.144531 273.847656 95.496094 274.546875 95.03125 Z M 274.546875 95.03125 " fill-opacity="1" fill-rule="nonzero" />
      </g>
    </g>
  </g>
  <g clip-path="url(#c67b08eb56)">
    <g clip-path="url(#ecab95e113)">
      <g clip-path="url(#daa54685d0)">
        <path fill="#57e0ab" d="M 266.832031 274.515625 C 266.902344 271.746094 266.859375 268.976562 266.703125 266.210938 C 266.546875 263.445312 266.273438 260.6875 265.890625 257.945312 C 265.503906 255.203125 265.003906 252.480469 264.394531 249.777344 C 263.785156 247.074219 263.0625 244.402344 262.234375 241.757812 C 261.402344 239.117188 260.460938 236.511719 259.414062 233.949219 C 258.371094 231.382812 257.21875 228.867188 255.964844 226.398438 C 254.710938 223.929688 253.355469 221.515625 251.898438 219.160156 C 250.445312 216.800781 248.898438 214.507812 247.253906 212.28125 C 245.609375 210.050781 243.875 207.894531 242.054688 205.8125 C 240.230469 203.726562 238.328125 201.71875 236.339844 199.792969 C 234.351562 197.867188 232.285156 196.023438 230.144531 194.269531 C 228.007812 192.511719 225.796875 190.847656 223.519531 189.277344 C 221.242188 187.703125 218.902344 186.226562 216.5 184.847656 C 214.101562 183.46875 211.648438 182.191406 209.144531 181.015625 C 206.636719 179.84375 204.085938 178.773438 201.492188 177.808594 C 198.898438 176.84375 196.269531 175.988281 193.605469 175.242188 C 191.652344 174.503906 189.648438 173.964844 187.589844 173.628906 L 187.570312 173.753906 C 185.957031 173.40625 184.335938 173.097656 182.710938 172.832031 C 181.203125 172.585938 179.691406 172.375 178.171875 172.199219 C 176.65625 172.023438 175.136719 171.882812 173.613281 171.773438 C 172.089844 171.667969 170.566406 171.597656 169.039062 171.558594 C 167.511719 171.523438 165.988281 171.519531 164.460938 171.554688 C 162.933594 171.585938 161.410156 171.652344 159.886719 171.753906 C 158.363281 171.859375 156.84375 171.996094 155.324219 172.167969 C 153.808594 172.339844 152.292969 172.542969 150.785156 172.785156 C 149.277344 173.027344 147.777344 173.300781 146.28125 173.613281 C 144.785156 173.921875 143.300781 174.265625 141.820312 174.640625 C 140.339844 175.019531 138.871094 175.429688 137.410156 175.875 C 135.949219 176.320312 134.496094 176.796875 133.058594 177.308594 C 131.621094 177.820312 130.191406 178.363281 128.777344 178.941406 C 127.363281 179.515625 125.964844 180.125 124.578125 180.765625 C 123.191406 181.40625 121.816406 182.078125 120.460938 182.78125 C 119.105469 183.484375 117.765625 184.214844 116.445312 184.980469 C 115.121094 185.746094 113.816406 186.539062 112.53125 187.363281 C 111.242188 188.1875 109.976562 189.039062 108.730469 189.921875 C 107.480469 190.800781 106.253906 191.710938 105.046875 192.648438 C 103.839844 193.585938 102.65625 194.550781 101.496094 195.542969 C 100.332031 196.535156 99.195312 197.554688 98.078125 198.597656 C 96.960938 199.640625 95.871094 200.710938 94.804688 201.804688 C 93.738281 202.898438 92.695312 204.015625 91.679688 205.15625 C 90.664062 206.296875 89.671875 207.460938 88.710938 208.648438 C 87.746094 209.835938 86.8125 211.042969 85.902344 212.269531 C 84.996094 213.5 84.117188 214.75 83.265625 216.019531 C 82.414062 217.289062 81.589844 218.578125 80.800781 219.882812 C 80.007812 221.191406 79.246094 222.515625 78.511719 223.855469 C 77.78125 225.199219 77.078125 226.554688 76.410156 227.929688 C 75.738281 229.304688 75.101562 230.691406 74.492188 232.09375 C 73.886719 233.5 73.3125 234.914062 72.769531 236.34375 C 72.226562 237.773438 71.71875 239.214844 71.242188 240.667969 C 70.765625 242.117188 70.324219 243.582031 69.914062 245.054688 L 69.152344 247.808594 L 71.78125 246.679688 C 73.929688 245.769531 76.164062 245.179688 78.480469 244.90625 C 80.796875 244.632812 83.105469 244.6875 85.40625 245.074219 C 93.976562 246.46875 101.035156 252.039062 103.828125 259.609375 L 104.671875 261.886719 L 106.1875 259.992188 C 111.238281 253.699219 119.703125 250.65625 128.273438 252.054688 C 136.84375 253.449219 143.90625 259.019531 146.699219 266.589844 L 147.539062 268.867188 L 149.058594 266.972656 C 150.015625 265.820312 151.074219 264.773438 152.238281 263.828125 C 153.402344 262.886719 154.644531 262.066406 155.972656 261.371094 C 157.296875 260.675781 158.679688 260.117188 160.113281 259.699219 C 161.550781 259.277344 163.015625 259.003906 164.507812 258.871094 L 152.933594 329.949219 C 152.820312 330.644531 152.640625 331.320312 152.394531 331.980469 C 152.148438 332.640625 151.839844 333.269531 151.46875 333.871094 C 151.097656 334.46875 150.671875 335.027344 150.191406 335.542969 C 149.710938 336.058594 149.1875 336.519531 148.613281 336.933594 C 148.042969 337.34375 147.4375 337.695312 146.796875 337.988281 C 146.15625 338.28125 145.496094 338.507812 144.808594 338.667969 C 144.125 338.832031 143.429688 338.925781 142.726562 338.949219 C 142.023438 338.972656 141.324219 338.929688 140.628906 338.816406 C 139.933594 338.703125 139.257812 338.523438 138.597656 338.277344 C 137.941406 338.03125 137.3125 337.722656 136.714844 337.351562 C 136.113281 336.980469 135.558594 336.554688 135.042969 336.074219 C 134.527344 335.59375 134.066406 335.066406 133.65625 334.496094 C 133.242188 333.925781 132.894531 333.316406 132.601562 332.675781 C 132.308594 332.035156 132.082031 331.371094 131.921875 330.6875 C 131.761719 330 131.667969 329.304688 131.644531 328.601562 C 131.617188 327.898438 131.664062 327.199219 131.777344 326.503906 L 132.570312 321.613281 C 132.617188 321.347656 132.632812 321.078125 132.625 320.808594 C 132.613281 320.535156 132.578125 320.269531 132.515625 320.003906 C 132.453125 319.742188 132.367188 319.484375 132.253906 319.238281 C 132.144531 318.992188 132.007812 318.761719 131.847656 318.539062 C 131.691406 318.320312 131.511719 318.117188 131.316406 317.933594 C 131.117188 317.75 130.902344 317.585938 130.671875 317.441406 C 130.441406 317.300781 130.203125 317.179688 129.949219 317.085938 C 129.695312 316.992188 129.433594 316.921875 129.167969 316.878906 C 128.898438 316.835938 128.632812 316.816406 128.359375 316.828125 C 128.089844 316.835938 127.824219 316.871094 127.558594 316.933594 C 127.296875 316.996094 127.042969 317.085938 126.792969 317.195312 C 126.546875 317.308594 126.316406 317.445312 126.09375 317.601562 C 125.875 317.761719 125.675781 317.941406 125.488281 318.136719 C 125.304688 318.335938 125.140625 318.550781 125 318.78125 C 124.855469 319.011719 124.738281 319.253906 124.644531 319.507812 C 124.546875 319.761719 124.480469 320.023438 124.433594 320.289062 L 123.640625 325.175781 C 123.539062 325.792969 123.46875 326.410156 123.429688 327.027344 C 123.390625 327.648438 123.382812 328.269531 123.402344 328.890625 C 123.425781 329.511719 123.476562 330.132812 123.558594 330.75 C 123.640625 331.363281 123.753906 331.976562 123.894531 332.582031 C 124.039062 333.183594 124.210938 333.78125 124.410156 334.371094 C 124.613281 334.957031 124.839844 335.535156 125.097656 336.101562 C 125.355469 336.667969 125.640625 337.21875 125.953125 337.757812 C 126.261719 338.292969 126.601562 338.816406 126.964844 339.320312 C 127.324219 339.824219 127.710938 340.308594 128.121094 340.777344 C 128.535156 341.242188 128.964844 341.6875 129.417969 342.113281 C 129.875 342.535156 130.347656 342.9375 130.839844 343.3125 C 131.335938 343.691406 131.84375 344.042969 132.375 344.371094 C 132.902344 344.699219 133.445312 344.996094 134.003906 345.273438 C 134.558594 345.546875 135.128906 345.789062 135.710938 346.007812 C 136.292969 346.226562 136.882812 346.414062 137.484375 346.574219 C 138.082031 346.734375 138.691406 346.863281 139.304688 346.964844 C 139.917969 347.0625 140.53125 347.132812 141.152344 347.171875 C 141.773438 347.210938 142.390625 347.21875 143.011719 347.199219 C 143.632812 347.175781 144.253906 347.125 144.867188 347.039062 C 145.484375 346.957031 146.09375 346.84375 146.699219 346.703125 C 147.300781 346.558594 147.898438 346.386719 148.484375 346.1875 C 149.074219 345.984375 149.648438 345.757812 150.214844 345.5 C 150.78125 345.242188 151.332031 344.957031 151.867188 344.644531 C 152.40625 344.332031 152.925781 343.992188 153.429688 343.628906 C 153.933594 343.265625 154.421875 342.878906 154.886719 342.46875 C 155.351562 342.058594 155.796875 341.625 156.222656 341.167969 C 156.644531 340.714844 157.042969 340.238281 157.421875 339.746094 C 157.800781 339.25 158.152344 338.738281 158.476562 338.210938 C 158.804688 337.683594 159.105469 337.140625 159.378906 336.582031 C 159.652344 336.023438 159.898438 335.453125 160.113281 334.871094 C 160.332031 334.289062 160.519531 333.695312 160.679688 333.09375 C 160.839844 332.492188 160.96875 331.886719 161.070312 331.273438 L 172.777344 259.363281 C 180.613281 261.15625 186.964844 266.488281 189.582031 273.578125 L 190.425781 275.855469 L 191.941406 273.960938 C 196.992188 267.667969 205.457031 264.625 214.027344 266.023438 C 222.597656 267.417969 229.660156 272.988281 232.453125 280.558594 L 233.292969 282.835938 L 234.8125 280.941406 C 239.863281 274.652344 248.324219 271.605469 256.898438 273.003906 C 259.6875 273.453125 262.328125 274.351562 264.8125 275.691406 L 266.78125 276.753906 Z M 85.863281 242.367188 C 81.617188 241.660156 77.433594 241.9375 73.316406 243.195312 C 74.082031 240.71875 74.941406 238.273438 75.902344 235.867188 C 76.859375 233.457031 77.910156 231.089844 79.058594 228.765625 C 80.203125 226.441406 81.441406 224.164062 82.765625 221.9375 C 84.09375 219.710938 85.507812 217.542969 87.007812 215.429688 C 88.507812 213.316406 90.089844 211.261719 91.75 209.277344 C 93.414062 207.289062 95.152344 205.371094 96.96875 203.519531 C 98.78125 201.671875 100.667969 199.894531 102.625 198.195312 C 104.582031 196.496094 106.601562 194.878906 108.683594 193.339844 C 110.769531 191.800781 112.914062 190.347656 115.113281 188.980469 C 117.3125 187.613281 119.5625 186.335938 121.867188 185.148438 C 124.167969 183.960938 126.511719 182.863281 128.902344 181.863281 C 131.289062 180.863281 133.714844 179.957031 136.175781 179.148438 C 138.636719 178.339844 141.125 177.628906 143.640625 177.019531 C 146.15625 176.410156 148.695312 175.902344 151.25 175.492188 C 153.808594 175.085938 156.378906 174.78125 158.960938 174.578125 C 161.539062 174.375 164.125 174.273438 166.714844 174.277344 C 161.480469 176.050781 156.21875 179.085938 150.976562 183.375 C 142.625 190.222656 134.304688 200.28125 126.160156 213.25 C 115.351562 230.535156 107.804688 248.554688 105.023438 255.59375 C 101.308594 248.6875 94.21875 243.726562 85.863281 242.367188 Z M 128.71875 249.34375 C 126.980469 249.046875 125.226562 248.917969 123.460938 248.964844 C 121.695312 249.015625 119.953125 249.234375 118.230469 249.625 C 116.507812 250.019531 114.839844 250.574219 113.226562 251.296875 C 111.613281 252.019531 110.089844 252.890625 108.648438 253.914062 C 111.996094 245.722656 118.972656 229.910156 128.5 214.675781 C 149.527344 181.070312 167.644531 174.371094 179.8125 175.261719 C 177.53125 178.234375 173.109375 184.554688 168.003906 194.90625 C 161.601562 207.898438 152.953125 229.855469 147.359375 261.65625 C 143.515625 255.226562 136.710938 250.644531 128.730469 249.34375 Z M 172.988281 256.597656 C 172.523438 256.519531 172.0625 256.402344 171.59375 256.324219 C 169.410156 255.96875 167.214844 255.871094 165.007812 256.03125 C 162.265625 256.214844 159.621094 256.820312 157.070312 257.84375 C 154.519531 258.867188 152.191406 260.261719 150.082031 262.027344 C 160.011719 205.699219 179.6875 179.722656 182.996094 175.679688 C 184.136719 175.863281 185.265625 176.082031 186.390625 176.3125 C 187.300781 178.691406 189.992188 186.546875 191.773438 199.753906 C 193.679688 213.878906 194.878906 237.085938 190.175781 268.554688 C 189.226562 267.027344 188.132812 265.609375 186.894531 264.304688 C 185.652344 263 184.296875 261.832031 182.820312 260.804688 C 181.34375 259.777344 179.777344 258.910156 178.125 258.199219 C 176.472656 257.492188 174.761719 256.957031 173 256.597656 Z M 214.457031 263.304688 C 206.480469 262.003906 198.570312 264.191406 192.878906 269.066406 C 197.660156 237.136719 196.421875 213.570312 194.472656 199.21875 C 192.960938 187.992188 190.816406 180.640625 189.582031 177.039062 C 190.652344 177.296875 191.679688 177.558594 192.722656 177.851562 C 211 184.832031 220.683594 209.785156 225.671875 230.496094 C 229.875 247.96875 231.464844 265.175781 232.042969 274.007812 C 231.003906 272.582031 229.832031 271.269531 228.535156 270.074219 C 227.234375 268.878906 225.832031 267.820312 224.324219 266.902344 C 222.816406 265.984375 221.230469 265.222656 219.574219 264.617188 C 217.914062 264.011719 216.214844 263.574219 214.46875 263.304688 Z M 257.3125 270.28125 C 248.960938 268.921875 240.679688 271.382812 234.945312 276.75 C 234.542969 269.191406 233.101562 249.6875 228.332031 229.886719 C 224.75 215.007812 220.023438 202.828125 214.273438 193.683594 C 211.605469 189.328125 208.382812 185.4375 204.601562 182.007812 C 206.800781 182.9375 208.960938 183.949219 211.085938 185.039062 C 213.210938 186.128906 215.292969 187.296875 217.332031 188.539062 C 219.367188 189.785156 221.359375 191.101562 223.300781 192.488281 C 225.242188 193.878906 227.132812 195.339844 228.964844 196.867188 C 230.800781 198.394531 232.578125 199.988281 234.296875 201.648438 C 236.011719 203.308594 237.667969 205.027344 239.261719 206.808594 C 240.851562 208.589844 242.375 210.425781 243.832031 212.316406 C 245.289062 214.210938 246.675781 216.152344 247.992188 218.148438 C 249.304688 220.144531 250.546875 222.183594 251.710938 224.269531 C 252.875 226.355469 253.960938 228.480469 254.972656 230.644531 C 255.980469 232.8125 256.910156 235.011719 257.757812 237.246094 C 258.605469 239.480469 259.371094 241.742188 260.050781 244.03125 C 260.734375 246.324219 261.332031 248.636719 261.84375 250.96875 C 262.355469 253.304688 262.78125 255.652344 263.121094 258.019531 C 263.464844 260.382812 263.714844 262.757812 263.882812 265.144531 C 264.046875 267.527344 264.128906 269.914062 264.117188 272.304688 C 261.945312 271.34375 259.6875 270.671875 257.339844 270.289062 Z M 121.53125 130.535156 C 122.273438 130.65625 123.011719 130.636719 123.746094 130.464844 C 124.480469 130.292969 125.15625 129.988281 125.769531 129.550781 C 127.976562 127.957031 129.800781 121.894531 130.160156 120.699219 L 130.675781 119 L 128.929688 118.925781 C 127.683594 118.875 121.359375 118.695312 119.152344 120.289062 C 118.695312 120.617188 118.296875 121.007812 117.953125 121.453125 C 117.613281 121.902344 117.34375 122.390625 117.144531 122.917969 C 116.949219 123.445312 116.832031 123.988281 116.796875 124.550781 C 116.761719 125.113281 116.808594 125.667969 116.9375 126.21875 C 117.066406 126.765625 117.269531 127.285156 117.554688 127.769531 C 117.835938 128.257812 118.183594 128.695312 118.59375 129.078125 C 119.003906 129.460938 119.464844 129.777344 119.96875 130.027344 C 120.472656 130.273438 121.003906 130.441406 121.558594 130.53125 Z M 120.738281 122.519531 C 121.535156 121.96875 124.304688 121.667969 127.003906 121.644531 C 126.125 124.199219 124.96875 126.738281 124.1875 127.320312 C 123.871094 127.550781 123.519531 127.707031 123.140625 127.796875 C 122.757812 127.886719 122.375 127.902344 121.988281 127.839844 C 121.601562 127.777344 121.242188 127.640625 120.90625 127.433594 C 120.574219 127.230469 120.292969 126.964844 120.066406 126.648438 C 119.835938 126.332031 119.675781 125.980469 119.585938 125.597656 C 119.496094 125.21875 119.484375 124.832031 119.546875 124.445312 C 119.609375 124.058594 119.746094 123.699219 119.949219 123.363281 C 120.15625 123.03125 120.417969 122.75 120.738281 122.519531 Z M 154.632812 135.917969 C 155.378906 136.042969 156.117188 136.019531 156.851562 135.847656 C 157.585938 135.679688 158.257812 135.375 158.871094 134.933594 C 161.078125 133.34375 162.902344 127.277344 163.261719 126.082031 L 163.769531 124.386719 L 162.019531 124.3125 C 160.777344 124.261719 154.449219 124.085938 152.242188 125.675781 C 151.785156 126.007812 151.386719 126.394531 151.042969 126.84375 C 150.703125 127.289062 150.433594 127.777344 150.238281 128.304688 C 150.039062 128.832031 149.921875 129.378906 149.886719 129.941406 C 149.851562 130.503906 149.898438 131.058594 150.027344 131.605469 C 150.15625 132.152344 150.363281 132.671875 150.644531 133.160156 C 150.925781 133.644531 151.273438 134.082031 151.683594 134.464844 C 152.097656 134.851562 152.554688 135.164062 153.058594 135.414062 C 153.566406 135.660156 154.09375 135.832031 154.652344 135.921875 Z M 153.828125 127.910156 C 154.609375 127.351562 157.378906 127.054688 160.097656 127.035156 C 159.21875 129.589844 158.058594 132.125 157.277344 132.707031 C 156.960938 132.9375 156.609375 133.097656 156.230469 133.1875 C 155.847656 133.277344 155.464844 133.289062 155.078125 133.226562 C 154.691406 133.164062 154.332031 133.027344 154 132.824219 C 153.667969 132.617188 153.386719 132.355469 153.15625 132.035156 C 152.929688 131.71875 152.769531 131.367188 152.679688 130.988281 C 152.589844 130.605469 152.574219 130.21875 152.640625 129.832031 C 152.703125 129.445312 152.835938 129.085938 153.042969 128.753906 C 153.25 128.417969 153.511719 128.136719 153.828125 127.910156 Z M 187.726562 141.304688 C 188.46875 141.429688 189.207031 141.40625 189.941406 141.238281 C 190.675781 141.066406 191.347656 140.761719 191.960938 140.324219 C 194.171875 138.730469 195.992188 132.667969 196.355469 131.472656 L 196.859375 129.773438 L 195.109375 129.703125 C 193.867188 129.648438 187.542969 129.472656 185.332031 131.066406 C 184.875 131.394531 184.476562 131.78125 184.136719 132.230469 C 183.792969 132.679688 183.523438 133.164062 183.328125 133.695312 C 183.128906 134.222656 183.015625 134.765625 182.976562 135.328125 C 182.941406 135.890625 182.988281 136.445312 183.117188 136.996094 C 183.246094 137.542969 183.453125 138.058594 183.734375 138.546875 C 184.015625 139.035156 184.363281 139.46875 184.777344 139.855469 C 185.1875 140.238281 185.644531 140.554688 186.152344 140.800781 C 186.65625 141.050781 187.1875 141.21875 187.742188 141.308594 Z M 186.917969 133.296875 C 187.699219 132.738281 190.472656 132.441406 193.1875 132.421875 C 192.308594 134.976562 191.148438 137.515625 190.371094 138.097656 C 190.050781 138.324219 189.703125 138.484375 189.320312 138.574219 C 188.941406 138.664062 188.554688 138.679688 188.167969 138.617188 C 187.78125 138.550781 187.421875 138.417969 187.089844 138.210938 C 186.757812 138.003906 186.476562 137.742188 186.246094 137.425781 C 186.019531 137.105469 185.859375 136.757812 185.769531 136.375 C 185.679688 135.992188 185.667969 135.609375 185.730469 135.222656 C 185.792969 134.835938 185.925781 134.476562 186.132812 134.140625 C 186.339844 133.808594 186.601562 133.527344 186.917969 133.296875 Z M 220.816406 146.695312 C 221.558594 146.820312 222.296875 146.796875 223.03125 146.625 C 223.765625 146.457031 224.441406 146.152344 225.054688 145.710938 C 227.261719 144.121094 229.082031 138.054688 229.445312 136.859375 L 229.949219 135.164062 L 228.203125 135.089844 C 226.957031 135.039062 220.632812 134.863281 218.425781 136.453125 C 217.96875 136.78125 217.570312 137.171875 217.226562 137.617188 C 216.886719 138.066406 216.617188 138.554688 216.417969 139.082031 C 216.222656 139.609375 216.105469 140.15625 216.070312 140.714844 C 216.035156 141.277344 216.082031 141.835938 216.210938 142.382812 C 216.339844 142.929688 216.542969 143.449219 216.824219 143.9375 C 217.109375 144.421875 217.457031 144.859375 217.867188 145.242188 C 218.277344 145.625 218.738281 145.941406 219.242188 146.191406 C 219.746094 146.4375 220.277344 146.605469 220.832031 146.699219 Z M 220.011719 138.683594 C 220.792969 138.125 223.5625 137.832031 226.277344 137.808594 C 225.398438 140.367188 224.242188 142.902344 223.460938 143.484375 C 223.144531 143.714844 222.792969 143.875 222.414062 143.964844 C 222.03125 144.054688 221.648438 144.066406 221.261719 144.003906 C 220.875 143.941406 220.515625 143.804688 220.179688 143.601562 C 219.847656 143.394531 219.566406 143.132812 219.339844 142.8125 C 219.109375 142.496094 218.949219 142.144531 218.859375 141.761719 C 218.769531 141.382812 218.757812 140.996094 218.820312 140.609375 C 218.882812 140.222656 219.019531 139.863281 219.222656 139.53125 C 219.429688 139.195312 219.691406 138.914062 220.011719 138.683594 Z M 253.90625 152.082031 C 254.652344 152.207031 255.390625 152.183594 256.125 152.015625 C 256.859375 151.84375 257.53125 151.539062 258.144531 151.101562 C 260.351562 149.507812 262.175781 143.445312 262.535156 142.25 L 263.042969 140.550781 L 261.292969 140.480469 C 260.050781 140.425781 253.722656 140.25 251.515625 141.839844 C 251.058594 142.171875 250.660156 142.558594 250.316406 143.007812 C 249.976562 143.453125 249.707031 143.941406 249.507812 144.46875 C 249.3125 144.996094 249.195312 145.542969 249.160156 146.105469 C 249.125 146.667969 249.171875 147.222656 249.300781 147.769531 C 249.429688 148.320312 249.636719 148.835938 249.917969 149.324219 C 250.199219 149.8125 250.546875 150.246094 250.957031 150.628906 C 251.371094 151.015625 251.828125 151.332031 252.332031 151.578125 C 252.839844 151.828125 253.367188 151.996094 253.925781 152.085938 Z M 253.101562 144.074219 C 253.882812 143.515625 256.652344 143.21875 259.371094 143.199219 C 258.492188 145.753906 257.332031 148.292969 256.550781 148.871094 C 256.234375 149.101562 255.882812 149.261719 255.503906 149.351562 C 255.121094 149.441406 254.738281 149.453125 254.351562 149.390625 C 253.964844 149.328125 253.605469 149.195312 253.273438 148.988281 C 252.9375 148.78125 252.65625 148.519531 252.429688 148.203125 C 252.199219 147.882812 252.042969 147.535156 251.953125 147.152344 C 251.863281 146.769531 251.847656 146.386719 251.910156 146 C 251.972656 145.613281 252.109375 145.25 252.316406 144.917969 C 252.519531 144.585938 252.785156 144.304688 253.101562 144.074219 Z M 133.664062 155.363281 C 134.410156 155.488281 135.148438 155.464844 135.882812 155.292969 C 136.617188 155.125 137.289062 154.820312 137.902344 154.378906 C 140.109375 152.789062 141.933594 146.722656 142.292969 145.527344 L 142.78125 143.84375 L 141.03125 143.773438 C 139.789062 143.71875 133.460938 143.542969 131.253906 145.136719 C 130.796875 145.464844 130.398438 145.851562 130.058594 146.300781 C 129.714844 146.75 129.445312 147.234375 129.25 147.761719 C 129.050781 148.292969 128.933594 148.835938 128.898438 149.398438 C 128.863281 149.960938 128.910156 150.515625 129.039062 151.0625 C 129.167969 151.613281 129.375 152.128906 129.65625 152.617188 C 129.9375 153.105469 130.285156 153.539062 130.695312 153.925781 C 131.109375 154.308594 131.566406 154.625 132.070312 154.871094 C 132.578125 155.121094 133.109375 155.289062 133.664062 155.378906 Z M 132.84375 147.351562 C 133.625 146.792969 136.394531 146.496094 139.109375 146.476562 C 138.234375 149.03125 137.074219 151.570312 136.292969 152.148438 C 135.976562 152.378906 135.625 152.539062 135.246094 152.628906 C 134.863281 152.71875 134.480469 152.730469 134.09375 152.667969 C 133.707031 152.605469 133.347656 152.472656 133.011719 152.265625 C 132.679688 152.058594 132.398438 151.796875 132.171875 151.480469 C 131.941406 151.160156 131.78125 150.808594 131.691406 150.429688 C 131.601562 150.046875 131.589844 149.664062 131.652344 149.277344 C 131.714844 148.886719 131.851562 148.527344 132.058594 148.195312 C 132.261719 147.859375 132.523438 147.578125 132.84375 147.351562 Z M 100.574219 149.972656 C 101.316406 150.097656 102.054688 150.074219 102.789062 149.90625 C 103.523438 149.734375 104.199219 149.429688 104.8125 148.992188 C 107.019531 147.398438 108.839844 141.335938 109.203125 140.140625 L 109.691406 138.441406 L 107.945312 138.367188 C 106.699219 138.316406 100.375 138.140625 98.167969 139.730469 C 97.710938 140.058594 97.308594 140.449219 96.96875 140.894531 C 96.625 141.34375 96.355469 141.832031 96.160156 142.359375 C 95.964844 142.886719 95.847656 143.429688 95.8125 143.992188 C 95.773438 144.554688 95.820312 145.109375 95.949219 145.660156 C 96.078125 146.207031 96.285156 146.726562 96.566406 147.210938 C 96.851562 147.699219 97.195312 148.136719 97.609375 148.519531 C 98.019531 148.902344 98.476562 149.21875 98.984375 149.46875 C 99.488281 149.714844 100.019531 149.882812 100.574219 149.972656 Z M 99.75 141.960938 C 100.535156 141.402344 103.304688 141.109375 106.019531 141.085938 C 105.140625 143.644531 103.980469 146.179688 103.203125 146.761719 C 102.882812 146.992188 102.535156 147.152344 102.152344 147.242188 C 101.773438 147.332031 101.386719 147.34375 101 147.28125 C 100.617188 147.21875 100.253906 147.082031 99.921875 146.878906 C 99.589844 146.671875 99.308594 146.410156 99.078125 146.089844 C 98.851562 145.773438 98.691406 145.421875 98.601562 145.039062 C 98.511719 144.660156 98.5 144.273438 98.5625 143.886719 C 98.625 143.5 98.757812 143.140625 98.964844 142.804688 C 99.171875 142.472656 99.433594 142.191406 99.75 141.960938 Z M 166.757812 160.75 C 167.5 160.875 168.238281 160.851562 168.972656 160.683594 C 169.707031 160.511719 170.378906 160.207031 170.992188 159.769531 C 173.199219 158.175781 175.023438 152.113281 175.386719 150.917969 L 175.871094 149.234375 L 174.125 149.160156 C 172.878906 149.109375 166.554688 148.933594 164.347656 150.523438 C 163.890625 150.851562 163.488281 151.242188 163.148438 151.6875 C 162.804688 152.136719 162.535156 152.625 162.339844 153.152344 C 162.140625 153.679688 162.027344 154.222656 161.992188 154.785156 C 161.953125 155.347656 162 155.902344 162.128906 156.453125 C 162.257812 157 162.464844 157.519531 162.746094 158.003906 C 163.03125 158.492188 163.375 158.929688 163.789062 159.3125 C 164.199219 159.695312 164.65625 160.011719 165.164062 160.261719 C 165.667969 160.507812 166.199219 160.675781 166.753906 160.765625 Z M 165.933594 152.738281 C 166.714844 152.179688 169.488281 151.882812 172.203125 151.863281 C 171.324219 154.417969 170.164062 156.957031 169.382812 157.539062 C 169.066406 157.765625 168.71875 157.925781 168.335938 158.015625 C 167.953125 158.105469 167.570312 158.121094 167.183594 158.058594 C 166.796875 157.996094 166.4375 157.859375 166.105469 157.652344 C 165.773438 157.449219 165.492188 157.183594 165.261719 156.867188 C 165.03125 156.546875 164.875 156.199219 164.785156 155.816406 C 164.695312 155.433594 164.679688 155.050781 164.742188 154.664062 C 164.808594 154.277344 164.941406 153.917969 165.148438 153.582031 C 165.355469 153.25 165.617188 152.96875 165.933594 152.738281 Z M 199.832031 166.136719 C 200.574219 166.261719 201.3125 166.238281 202.046875 166.066406 C 202.78125 165.898438 203.453125 165.59375 204.066406 165.152344 C 206.277344 163.5625 208.097656 157.496094 208.460938 156.300781 L 208.945312 154.617188 L 207.199219 154.546875 C 205.953125 154.492188 199.628906 154.316406 197.421875 155.910156 C 196.964844 156.238281 196.566406 156.625 196.222656 157.074219 C 195.882812 157.523438 195.613281 158.007812 195.414062 158.539062 C 195.21875 159.066406 195.101562 159.609375 195.066406 160.171875 C 195.03125 160.734375 195.074219 161.289062 195.203125 161.839844 C 195.332031 162.386719 195.539062 162.902344 195.820312 163.390625 C 196.105469 163.878906 196.453125 164.3125 196.863281 164.699219 C 197.273438 165.082031 197.734375 165.398438 198.238281 165.644531 C 198.742188 165.894531 199.273438 166.0625 199.828125 166.152344 Z M 199.023438 158.128906 C 199.804688 157.570312 202.578125 157.273438 205.292969 157.253906 C 204.414062 159.808594 203.253906 162.34375 202.476562 162.925781 C 202.15625 163.15625 201.808594 163.316406 201.425781 163.40625 C 201.046875 163.496094 200.660156 163.507812 200.273438 163.445312 C 199.886719 163.382812 199.527344 163.25 199.195312 163.042969 C 198.863281 162.835938 198.582031 162.574219 198.351562 162.253906 C 198.125 161.9375 197.964844 161.585938 197.875 161.207031 C 197.785156 160.824219 197.773438 160.4375 197.835938 160.050781 C 197.898438 159.664062 198.03125 159.304688 198.238281 158.972656 C 198.445312 158.636719 198.707031 158.355469 199.023438 158.128906 Z M 232.921875 171.523438 C 233.664062 171.648438 234.402344 171.625 235.136719 171.457031 C 235.871094 171.285156 236.546875 170.980469 237.160156 170.542969 C 239.367188 168.949219 241.191406 162.886719 241.550781 161.691406 L 242.035156 160.007812 L 240.289062 159.933594 C 239.042969 159.882812 232.71875 159.707031 230.511719 161.296875 C 230.054688 161.625 229.65625 162.015625 229.3125 162.460938 C 228.972656 162.910156 228.703125 163.398438 228.503906 163.925781 C 228.308594 164.453125 228.191406 165 228.15625 165.558594 C 228.121094 166.121094 228.167969 166.679688 228.296875 167.226562 C 228.425781 167.773438 228.628906 168.292969 228.914062 168.78125 C 229.195312 169.265625 229.542969 169.703125 229.953125 170.085938 C 230.367188 170.46875 230.824219 170.785156 231.328125 171.035156 C 231.835938 171.28125 232.363281 171.449219 232.917969 171.542969 Z M 232.117188 163.515625 C 232.898438 162.957031 235.667969 162.660156 238.382812 162.640625 C 237.503906 165.195312 236.347656 167.734375 235.566406 168.316406 C 235.25 168.542969 234.898438 168.703125 234.519531 168.792969 C 234.136719 168.882812 233.753906 168.898438 233.367188 168.832031 C 232.980469 168.769531 232.621094 168.636719 232.285156 168.429688 C 231.953125 168.222656 231.671875 167.960938 231.445312 167.644531 C 231.214844 167.324219 231.054688 166.976562 230.964844 166.59375 C 230.875 166.210938 230.863281 165.828125 230.925781 165.441406 C 230.988281 165.054688 231.125 164.691406 231.328125 164.359375 C 231.535156 164.027344 231.796875 163.746094 232.117188 163.515625 Z M 114.191406 175.777344 C 114.9375 175.898438 115.675781 175.878906 116.410156 175.707031 C 117.140625 175.535156 117.816406 175.230469 118.429688 174.792969 C 120.636719 173.199219 122.460938 167.136719 122.820312 165.941406 L 123.308594 164.257812 L 121.558594 164.183594 C 120.3125 164.144531 113.992188 163.941406 111.78125 165.542969 C 111.324219 165.871094 110.925781 166.261719 110.585938 166.707031 C 110.242188 167.15625 109.972656 167.644531 109.777344 168.171875 C 109.578125 168.699219 109.464844 169.242188 109.425781 169.804688 C 109.390625 170.367188 109.4375 170.921875 109.566406 171.472656 C 109.695312 172.019531 109.902344 172.539062 110.183594 173.023438 C 110.464844 173.511719 110.8125 173.949219 111.226562 174.332031 C 111.636719 174.714844 112.09375 175.03125 112.601562 175.28125 C 113.105469 175.527344 113.636719 175.695312 114.191406 175.785156 Z M 113.371094 167.765625 C 114.152344 167.207031 116.921875 166.910156 119.636719 166.890625 C 118.757812 169.445312 117.601562 171.980469 116.820312 172.5625 C 116.335938 172.910156 115.800781 173.09375 115.203125 173.113281 C 114.609375 173.136719 114.0625 172.988281 113.554688 172.675781 C 113.050781 172.363281 112.675781 171.933594 112.429688 171.390625 C 112.183594 170.851562 112.105469 170.285156 112.203125 169.699219 C 112.320312 168.890625 112.710938 168.246094 113.371094 167.765625 Z M 246.539062 197.324219 C 247.285156 197.449219 248.023438 197.425781 248.757812 197.257812 C 249.492188 197.085938 250.164062 196.78125 250.777344 196.34375 C 252.984375 194.75 254.808594 188.6875 255.167969 187.492188 L 255.65625 185.808594 L 253.90625 185.734375 C 252.675781 185.695312 246.355469 185.492188 244.148438 187.097656 C 243.691406 187.425781 243.292969 187.8125 242.949219 188.261719 C 242.609375 188.707031 242.339844 189.195312 242.140625 189.722656 C 241.945312 190.25 241.828125 190.796875 241.792969 191.359375 C 241.757812 191.921875 241.800781 192.476562 241.929688 193.023438 C 242.058594 193.574219 242.265625 194.089844 242.546875 194.578125 C 242.832031 195.066406 243.179688 195.5 243.589844 195.882812 C 244 196.269531 244.460938 196.585938 244.964844 196.832031 C 245.46875 197.082031 246 197.25 246.554688 197.339844 Z M 245.734375 189.316406 C 246.515625 188.757812 249.285156 188.460938 252.003906 188.441406 C 251.125 190.996094 249.964844 193.535156 249.183594 194.117188 C 248.703125 194.464844 248.164062 194.648438 247.570312 194.667969 C 246.976562 194.6875 246.425781 194.542969 245.917969 194.226562 C 245.414062 193.914062 245.039062 193.488281 244.792969 192.945312 C 244.546875 192.402344 244.472656 191.839844 244.566406 191.25 C 244.6875 190.441406 245.074219 189.796875 245.734375 189.316406 Z M 245.734375 189.316406 " fill-opacity="1" fill-rule="nonzero" />
      </g>
    </g>
  </g>
  <g clip-path="url(#b7ba85213e)">
    <g clip-path="url(#7ff8b5ccdc)">
      <g clip-path="url(#b6f008184e)">
        <g clip-path="url(#6756a698d1)">
          <path fill="#221f1f" d="M 238.175781 262.550781 L 130.074219 245.304688 L 130.125 244.972656 L 238.226562 262.21875 Z M 236.554688 272.699219 L 128.453125 255.457031 L 128.402344 255.789062 L 236.503906 273.03125 Z M 234.878906 283.222656 L 126.777344 265.980469 L 126.722656 266.3125 L 234.824219 283.554688 Z M 233.207031 293.703125 L 125.105469 276.460938 L 125.050781 276.792969 L 233.152344 294.039062 Z M 231.535156 304.1875 L 123.429688 286.941406 L 123.378906 287.277344 L 231.480469 304.519531 Z M 229.863281 314.667969 L 121.757812 297.425781 L 121.707031 297.757812 L 229.808594 315 Z M 228.183594 325.191406 L 120.082031 307.949219 L 120.027344 308.28125 L 228.128906 325.523438 Z M 226.511719 335.675781 L 118.410156 318.429688 L 118.355469 318.761719 L 226.457031 336.007812 Z M 224.839844 346.15625 L 116.738281 328.914062 L 116.683594 329.246094 L 224.785156 346.488281 Z M 223.160156 356.679688 L 115.058594 339.4375 L 115.003906 339.769531 L 223.105469 357.011719 Z M 223.160156 356.679688 " fill-opacity="1" fill-rule="nonzero" />
        </g>
      </g>
    </g>
  </g>
  <g clip-path="url(#510cba1ecd)">
    <g clip-path="url(#1490f5cd1c)">
      <g clip-path="url(#ca2dd726b5)">
        <g clip-path="url(#e974a8908d)">
          <path fill="#221f1f" d="M 291.191406 214.398438 L 183.089844 197.15625 L 183.140625 196.824219 L 291.242188 214.066406 Z M 289.570312 224.546875 L 181.46875 207.304688 L 181.417969 207.636719 L 289.519531 224.882812 Z M 287.894531 235.074219 L 179.792969 217.828125 L 179.738281 218.160156 L 287.839844 235.40625 Z M 286.222656 245.554688 L 178.117188 228.308594 L 178.066406 228.644531 L 286.167969 245.886719 Z M 284.550781 256.035156 L 176.445312 238.792969 L 176.394531 239.125 L 284.496094 256.367188 Z M 282.878906 266.519531 L 174.773438 249.273438 L 174.722656 249.605469 L 282.824219 266.851562 Z M 281.199219 277.042969 L 173.097656 259.796875 L 173.042969 260.128906 L 281.144531 277.375 Z M 279.527344 287.523438 L 171.425781 270.28125 L 171.371094 270.613281 L 279.472656 287.855469 Z M 277.855469 298.003906 L 169.753906 280.761719 L 169.699219 281.09375 L 277.800781 298.339844 Z M 276.175781 308.527344 L 168.074219 291.285156 L 168.019531 291.617188 L 276.121094 308.863281 Z M 276.175781 308.527344 " fill-opacity="1" fill-rule="nonzero" />
        </g>
      </g>
    </g>
  </g>
  <g fill="#000000" fill-opacity="1">
    <g transform="translate(138.277313, 234.519317)">
      <g>
        <path d="M 8.796875 -28.65625 C 9.023438 -30.539062 8.929688 -31.96875 8.515625 -32.9375 C 8.109375 -33.90625 7.128906 -34.484375 5.578125 -34.671875 L 5.03125 -34.75 L 5.21875 -36.40625 L 29.609375 -33.46875 C 32.742188 -33.082031 34.132812 -31.414062 33.78125 -28.46875 L 33.21875 -23.765625 L 31.5625 -23.96875 C 31.832031 -26.257812 31.453125 -28.003906 30.421875 -29.203125 C 29.390625 -30.410156 27.726562 -31.148438 25.4375 -31.421875 L 16.53125 -32.5 L 14.875 -18.6875 L 29.265625 -16.953125 L 28.953125 -14.46875 L 14.5625 -16.203125 L 12.734375 -0.984375 L 22.203125 0.15625 C 24.296875 0.40625 26.097656 0.144531 27.609375 -0.625 C 29.128906 -1.394531 30.492188 -2.890625 31.703125 -5.109375 L 33.109375 -4.359375 L 31 -0.203125 C 30.351562 1.078125 29.660156 1.988281 28.921875 2.53125 C 28.179688 3.070312 27.113281 3.257812 25.71875 3.09375 L 5.265625 0.640625 Z M 8.796875 -28.65625 " />
      </g>
    </g>
  </g>
  <g fill="#000000" fill-opacity="1">
    <g transform="translate(175.983835, 292.58656)">
      <g>
        <path d="M 20.171875 3.53125 C 16.367188 3.082031 13.191406 1.875 10.640625 -0.09375 C 8.085938 -2.0625 6.265625 -4.550781 5.171875 -7.5625 C 4.078125 -10.570312 3.742188 -13.867188 4.171875 -17.453125 C 4.617188 -21.128906 5.816406 -24.394531 7.765625 -27.25 C 9.710938 -30.113281 12.1875 -32.25 15.1875 -33.65625 C 18.1875 -35.070312 21.398438 -35.578125 24.828125 -35.171875 C 28.066406 -34.773438 30.722656 -34.03125 32.796875 -32.9375 C 34.878906 -31.851562 36.410156 -30.578125 37.390625 -29.109375 C 37.941406 -28.171875 38.21875 -27.066406 38.21875 -25.796875 C 38.226562 -24.523438 38.097656 -22.769531 37.828125 -20.53125 L 36.171875 -20.734375 C 35.867188 -24.203125 34.882812 -26.9375 33.21875 -28.9375 C 31.5625 -30.9375 29.21875 -32.117188 26.1875 -32.484375 C 22.425781 -32.929688 19.296875 -31.957031 16.796875 -29.5625 C 14.296875 -27.164062 12.664062 -22.820312 11.90625 -16.53125 C 11.34375 -11.84375 11.875 -7.828125 13.5 -4.484375 C 15.125 -1.148438 18 0.765625 22.125 1.265625 C 24.707031 1.578125 27.15625 1.179688 29.46875 0.078125 C 31.789062 -1.023438 33.769531 -2.773438 35.40625 -5.171875 L 37.15625 -3.4375 C 35.007812 -0.550781 32.597656 1.445312 29.921875 2.5625 C 27.253906 3.675781 24.003906 4 20.171875 3.53125 Z M 20.171875 3.53125 " />
      </g>
    </g>
  </g>
</svg>
