<svg 
  xmlns="http://www.w3.org/2000/svg" 
  xmlns:xlink="http://www.w3.org/1999/xlink" 
  width="500" 
  zoomAndPan="magnify" 
  viewBox="0 0 370 370" 
  height="500" 
  preserveAspectRatio="xMidYMid meet" 
  version="1.0"
>
  <defs>
    <g />
    <clipPath id="b24a58d6c9">
      <path d="M 270 160 L 311 160 L 311 213 L 270 213 Z M 270 160 " clip-rule="nonzero" />
    </clipPath>
    <clipPath id="04ee62b8d5">
      <path d="M 279.421875 159.402344 L 313.328125 165.953125 L 304.160156 213.421875 L 270.253906 206.871094 Z M 279.421875 159.402344 " clip-rule="nonzero" />
    </clipPath>
    <clipPath id="929472849b">
      <path d="M 279.421875 159.402344 L 313.328125 165.953125 L 304.160156 213.421875 L 270.253906 206.871094 Z M 279.421875 159.402344 " clip-rule="nonzero" />
    </clipPath>
    <clipPath id="cb33cb59cb">
      <path d="M 262 109 L 332 109 L 332 175 L 262 175 Z M 262 109 " clip-rule="nonzero" />
    </clipPath>
    <clipPath id="4e78870e3d">
      <path d="M 272.296875 106.519531 L 339.984375 120.246094 L 329 174.398438 L 261.3125 160.667969 Z M 272.296875 106.519531 " clip-rule="nonzero" />
    </clipPath>
    <clipPath id="31bb12b8d6">
      <path d="M 272.296875 106.519531 L 339.984375 120.246094 L 324.578125 196.207031 L 256.890625 182.480469 Z M 272.296875 106.519531 " clip-rule="nonzero" />
    </clipPath>
    <clipPath id="287bad258f">
      <path d="M 255 195 L 321 195 L 321 221 L 255 221 Z M 255 195 " clip-rule="nonzero" />
    </clipPath>
    <clipPath id="1db2ece69c">
      <path d="M 254.21875 195.058594 L 320.875 205.910156 L 317.542969 226.359375 L 250.890625 215.507812 Z M 254.21875 195.058594 " clip-rule="nonzero" />
    </clipPath>
    <clipPath id="368c5ab035">
      <path d="M 262.996094 141.15625 L 329.652344 152.011719 L 317.5625 226.238281 L 250.910156 215.386719 Z M 262.996094 141.15625 " clip-rule="nonzero" />
    </clipPath>
    <clipPath id="c23a9a650e">
      <path d="M 273 186 L 293 186 L 293 204 L 273 204 Z M 273 186 " clip-rule="nonzero" />
    </clipPath>
    <clipPath id="7050b9ce64">
      <path d="M 276.105469 186.304688 L 292.019531 188.84375 L 289.601562 204 L 273.6875 201.460938 Z M 276.105469 186.304688 " clip-rule="nonzero" />
    </clipPath>
    <clipPath id="1f41ee3e94">
      <path d="M 276.160156 185.953125 L 312.539062 191.757812 L 307.460938 223.585938 L 271.085938 217.78125 Z M 276.160156 185.953125 " clip-rule="nonzero" />
    </clipPath>
    <clipPath id="3e630f3ca3">
      <path d="M 276.160156 185.953125 L 312.539062 191.757812 L 307.460938 223.585938 L 271.085938 217.78125 Z M 276.160156 185.953125 " clip-rule="nonzero" />
    </clipPath>
    <clipPath id="67da5e04e1">
      <path d="M 291 170 L 310 170 L 310 188 L 291 188 Z M 291 170 " clip-rule="nonzero" />
    </clipPath>
    <clipPath id="1b933baa6b">
      <path d="M 294.03125 170.023438 L 309.945312 172.5625 L 307.527344 187.71875 L 291.613281 185.179688 Z M 294.03125 170.023438 " clip-rule="nonzero" />
    </clipPath>
    <clipPath id="f37134beb0">
      <path d="M 294.085938 169.675781 L 330.460938 175.476562 L 325.382812 207.304688 L 289.007812 201.503906 Z M 294.085938 169.675781 " clip-rule="nonzero" />
    </clipPath>
    <clipPath id="b8d20a48ad">
      <path d="M 294.085938 169.675781 L 330.460938 175.476562 L 325.382812 207.304688 L 289.007812 201.503906 Z M 294.085938 169.675781 " clip-rule="nonzero" />
    </clipPath>
  </defs>
  <g clip-path="url(#b24a58d6c9)">
    <g clip-path="url(#04ee62b8d5)">
      <g clip-path="url(#929472849b)">
        <path fill="#ffffff" d="M 310.015625 177.460938 L 301.578125 164.800781 C 301.058594 164.023438 300.167969 163.425781 299.199219 163.242188 L 283.054688 160.121094 C 281.035156 159.730469 279.105469 161.054688 278.710938 163.097656 L 270.96875 203.171875 C 270.570312 205.214844 271.871094 207.164062 273.890625 207.554688 L 300.53125 212.699219 C 302.546875 213.089844 304.476562 211.765625 304.875 209.722656 L 310.578125 180.199219 C 310.765625 179.21875 310.535156 178.242188 310.015625 177.460938 Z M 300.6875 175.914062 C 299.878906 175.757812 299.359375 174.976562 299.515625 174.160156 L 300.972656 166.636719 L 308.113281 177.347656 Z M 300.6875 175.914062 " fill-opacity="1" fill-rule="nonzero" />
      </g>
    </g>
  </g>
  <g clip-path="url(#cb33cb59cb)">
    <g clip-path="url(#4e78870e3d)">
      <g clip-path="url(#31bb12b8d6)">
        <path fill="#57e0ab" d="M 330.800781 164.945312 C 330.863281 163.988281 330.886719 163.027344 330.871094 162.066406 C 330.851562 161.109375 330.796875 160.152344 330.699219 159.195312 C 330.601562 158.242188 330.46875 157.292969 330.292969 156.347656 C 330.121094 155.40625 329.90625 154.472656 329.65625 153.546875 C 329.402344 152.621094 329.113281 151.707031 328.785156 150.804688 C 328.460938 149.902344 328.097656 149.015625 327.695312 148.144531 C 327.296875 147.273438 326.859375 146.417969 326.390625 145.585938 C 325.917969 144.75 325.414062 143.933594 324.875 143.140625 C 324.339844 142.347656 323.769531 141.578125 323.167969 140.832031 C 322.566406 140.085938 321.933594 139.367188 321.273438 138.675781 C 320.613281 137.980469 319.925781 137.316406 319.207031 136.679688 C 318.492188 136.042969 317.75 135.4375 316.984375 134.863281 C 316.21875 134.289062 315.429688 133.746094 314.621094 133.238281 C 313.808594 132.730469 312.980469 132.253906 312.128906 131.8125 C 311.277344 131.375 310.414062 130.96875 309.527344 130.601562 C 308.644531 130.234375 307.75 129.902344 306.835938 129.609375 C 306.171875 129.328125 305.488281 129.113281 304.78125 128.96875 L 304.773438 129.011719 C 304.21875 128.871094 303.664062 128.742188 303.105469 128.628906 C 302.070312 128.421875 301.027344 128.257812 299.976562 128.144531 C 298.925781 128.027344 297.875 127.960938 296.816406 127.945312 C 295.761719 127.925781 294.707031 127.957031 293.652344 128.035156 C 292.597656 128.113281 291.550781 128.242188 290.507812 128.417969 C 289.464844 128.589844 288.433594 128.8125 287.410156 129.082031 C 286.386719 129.351562 285.378906 129.667969 284.386719 130.027344 C 283.394531 130.390625 282.417969 130.796875 281.460938 131.246094 C 280.503906 131.699219 279.570312 132.191406 278.660156 132.726562 C 277.746094 133.265625 276.859375 133.839844 276 134.457031 C 275.140625 135.078125 274.3125 135.730469 273.511719 136.425781 C 272.710938 137.117188 271.945312 137.847656 271.210938 138.609375 C 270.480469 139.375 269.78125 140.167969 269.121094 140.996094 C 268.460938 141.824219 267.835938 142.679688 267.253906 143.5625 C 266.671875 144.449219 266.128906 145.359375 265.628906 146.292969 C 265.128906 147.226562 264.671875 148.179688 264.257812 149.15625 C 263.84375 150.128906 263.476562 151.125 263.152344 152.132812 L 262.851562 153.074219 L 263.777344 152.71875 C 265.316406 152.136719 266.894531 152.011719 268.507812 152.34375 C 271.449219 152.941406 273.8125 154.964844 274.675781 157.621094 L 274.9375 158.421875 L 275.484375 157.785156 C 277.316406 155.675781 280.28125 154.734375 283.226562 155.328125 C 286.167969 155.925781 288.53125 157.949219 289.394531 160.605469 L 289.65625 161.40625 L 290.207031 160.769531 C 290.90625 159.988281 291.726562 159.375 292.671875 158.921875 C 293.613281 158.472656 294.609375 158.222656 295.652344 158.171875 L 290.695312 182.621094 C 290.597656 183.105469 290.410156 183.550781 290.136719 183.960938 C 289.859375 184.367188 289.519531 184.707031 289.109375 184.980469 C 288.699219 185.253906 288.253906 185.4375 287.769531 185.53125 C 287.289062 185.625 286.804688 185.625 286.324219 185.527344 C 285.84375 185.429688 285.398438 185.242188 284.988281 184.96875 C 284.582031 184.691406 284.242188 184.351562 283.972656 183.941406 C 283.699219 183.527344 283.519531 183.082031 283.425781 182.597656 C 283.332031 182.113281 283.332031 181.628906 283.429688 181.148438 L 283.769531 179.464844 C 283.808594 179.28125 283.808594 179.09375 283.773438 178.910156 C 283.738281 178.722656 283.667969 178.550781 283.5625 178.390625 C 283.457031 178.234375 283.328125 178.101562 283.171875 177.996094 C 283.015625 177.890625 282.84375 177.820312 282.660156 177.78125 C 282.472656 177.742188 282.289062 177.742188 282.101562 177.78125 C 281.917969 177.816406 281.746094 177.886719 281.585938 177.992188 C 281.429688 178.097656 281.296875 178.226562 281.191406 178.382812 C 281.085938 178.542969 281.015625 178.714844 280.976562 178.898438 L 280.636719 180.582031 C 280.550781 181.003906 280.507812 181.429688 280.503906 181.863281 C 280.503906 182.296875 280.542969 182.722656 280.625 183.148438 C 280.707031 183.570312 280.828125 183.980469 280.992188 184.382812 C 281.15625 184.78125 281.355469 185.160156 281.59375 185.519531 C 281.832031 185.878906 282.101562 186.214844 282.40625 186.519531 C 282.707031 186.824219 283.039062 187.097656 283.394531 187.339844 C 283.753906 187.582031 284.128906 187.785156 284.527344 187.953125 C 284.921875 188.117188 285.332031 188.246094 285.753906 188.328125 C 286.175781 188.414062 286.601562 188.460938 287.035156 188.460938 C 287.464844 188.460938 287.890625 188.421875 288.3125 188.339844 C 288.738281 188.253906 289.148438 188.132812 289.546875 187.96875 C 289.945312 187.804688 290.324219 187.601562 290.683594 187.363281 C 291.039062 187.125 291.375 186.851562 291.679688 186.550781 C 291.984375 186.246094 292.257812 185.914062 292.5 185.554688 C 292.738281 185.195312 292.945312 184.820312 293.109375 184.421875 C 293.277344 184.023438 293.402344 183.609375 293.488281 183.1875 L 298.503906 158.449219 C 301.1875 159.175781 303.3125 161.105469 304.121094 163.59375 L 304.378906 164.394531 L 304.929688 163.757812 C 306.761719 161.648438 309.726562 160.707031 312.667969 161.304688 C 315.613281 161.902344 317.976562 163.921875 318.839844 166.582031 L 319.097656 167.378906 L 319.652344 166.746094 C 321.480469 164.632812 324.445312 163.691406 327.390625 164.289062 C 328.347656 164.484375 329.246094 164.828125 330.089844 165.324219 L 330.753906 165.71875 Z M 268.699219 151.414062 C 267.242188 151.113281 265.792969 151.152344 264.355469 151.535156 C 264.949219 149.835938 265.675781 148.195312 266.53125 146.617188 C 267.390625 145.035156 268.363281 143.53125 269.460938 142.105469 C 270.554688 140.679688 271.757812 139.347656 273.0625 138.113281 C 274.367188 136.878906 275.765625 135.757812 277.25 134.746094 C 278.734375 133.734375 280.289062 132.847656 281.914062 132.085938 C 283.539062 131.324219 285.214844 130.695312 286.941406 130.199219 C 288.664062 129.703125 290.417969 129.347656 292.199219 129.132812 C 293.980469 128.917969 295.765625 128.847656 297.558594 128.917969 C 295.726562 129.460938 293.867188 130.441406 291.996094 131.859375 C 289.019531 134.117188 286.007812 137.488281 283.019531 141.871094 C 279.050781 147.710938 276.199219 153.847656 275.140625 156.246094 C 273.953125 153.808594 271.570312 151.996094 268.699219 151.414062 Z M 283.414062 154.398438 C 282.210938 154.140625 281 154.128906 279.785156 154.355469 C 278.574219 154.585938 277.453125 155.035156 276.417969 155.714844 C 277.6875 152.921875 280.308594 147.542969 283.808594 142.394531 C 291.527344 131.042969 297.878906 128.960938 302.070312 129.433594 C 301.242188 130.429688 299.628906 132.5625 297.726562 136.078125 C 295.339844 140.488281 292.054688 147.972656 289.691406 158.90625 C 288.449219 156.632812 286.160156 154.953125 283.417969 154.398438 Z M 298.617188 157.496094 C 298.457031 157.464844 298.296875 157.417969 298.136719 157.382812 C 297.386719 157.230469 296.628906 157.167969 295.863281 157.195312 C 293.917969 157.25 292.171875 157.875 290.625 159.070312 C 294.816406 139.707031 301.96875 130.976562 303.167969 129.617188 C 303.558594 129.699219 303.945312 129.789062 304.332031 129.882812 C 304.613281 130.71875 305.4375 133.472656 305.875 138.070312 C 306.339844 142.984375 306.441406 151.03125 304.394531 161.863281 C 303.769531 160.769531 302.960938 159.84375 301.957031 159.082031 C 300.953125 158.324219 299.839844 157.796875 298.621094 157.496094 Z M 312.855469 160.367188 C 310.113281 159.8125 307.351562 160.464844 305.320312 162.078125 C 307.402344 151.085938 307.292969 142.914062 306.8125 137.917969 C 306.441406 134.015625 305.800781 131.441406 305.421875 130.175781 C 305.789062 130.28125 306.140625 130.386719 306.496094 130.5 C 312.71875 133.160156 315.730469 141.925781 317.171875 149.160156 C 318.390625 155.265625 318.707031 161.242188 318.789062 164.308594 C 318.101562 163.28125 317.242188 162.429688 316.214844 161.746094 C 315.1875 161.0625 314.070312 160.605469 312.859375 160.371094 Z M 327.570312 163.351562 C 324.703125 162.773438 321.808594 163.511719 319.753906 165.292969 C 319.714844 162.671875 319.480469 155.902344 318.101562 148.984375 C 317.0625 143.789062 315.59375 139.507812 313.730469 136.265625 C 312.867188 134.722656 311.808594 133.335938 310.546875 132.097656 C 312.042969 132.800781 313.480469 133.609375 314.855469 134.527344 C 316.234375 135.441406 317.535156 136.457031 318.765625 137.5625 C 319.992188 138.671875 321.132812 139.863281 322.1875 141.140625 C 323.242188 142.417969 324.195312 143.765625 325.050781 145.183594 C 325.90625 146.601562 326.65625 148.074219 327.296875 149.601562 C 327.933594 151.128906 328.460938 152.695312 328.871094 154.304688 C 329.28125 155.910156 329.570312 157.535156 329.742188 159.183594 C 329.914062 160.835938 329.964844 162.488281 329.894531 164.144531 C 329.15625 163.78125 328.382812 163.519531 327.578125 163.355469 Z M 282.535156 113.175781 C 283.066406 113.285156 283.558594 113.191406 284.011719 112.890625 C 284.796875 112.371094 285.507812 110.296875 285.652344 109.886719 L 285.851562 109.304688 L 285.25 109.257812 C 284.820312 109.222656 282.636719 109.078125 281.851562 109.597656 C 281.519531 109.820312 281.277344 110.113281 281.125 110.480469 C 280.96875 110.847656 280.929688 111.230469 281.007812 111.621094 C 281.082031 112.011719 281.261719 112.351562 281.539062 112.632812 C 281.820312 112.917969 282.15625 113.097656 282.546875 113.175781 Z M 282.371094 110.390625 C 282.652344 110.210938 283.613281 110.144531 284.546875 110.171875 C 284.210938 111.046875 283.773438 111.90625 283.496094 112.097656 C 283.382812 112.175781 283.261719 112.222656 283.128906 112.25 C 282.996094 112.277344 282.863281 112.277344 282.730469 112.25 C 282.597656 112.222656 282.476562 112.171875 282.363281 112.09375 C 282.25 112.019531 282.15625 111.925781 282.082031 111.8125 C 282.007812 111.699219 281.957031 111.574219 281.929688 111.441406 C 281.90625 111.308594 281.90625 111.175781 281.933594 111.042969 C 281.960938 110.910156 282.011719 110.785156 282.085938 110.671875 C 282.164062 110.5625 282.257812 110.46875 282.371094 110.390625 Z M 293.902344 115.480469 C 294.433594 115.589844 294.925781 115.496094 295.378906 115.195312 C 296.164062 114.671875 296.875 112.597656 297.015625 112.191406 L 297.214844 111.609375 L 296.609375 111.5625 C 296.183594 111.527344 294 111.382812 293.214844 111.902344 C 292.882812 112.125 292.640625 112.417969 292.484375 112.785156 C 292.332031 113.152344 292.292969 113.535156 292.367188 113.925781 C 292.445312 114.316406 292.621094 114.65625 292.902344 114.9375 C 293.183594 115.21875 293.519531 115.402344 293.90625 115.480469 Z M 293.730469 112.695312 C 294.007812 112.511719 294.972656 112.449219 295.910156 112.476562 C 295.570312 113.347656 295.136719 114.210938 294.859375 114.402344 C 294.746094 114.476562 294.625 114.527344 294.492188 114.554688 C 294.359375 114.582031 294.226562 114.582031 294.09375 114.554688 C 293.960938 114.527344 293.835938 114.476562 293.726562 114.398438 C 293.613281 114.324219 293.519531 114.230469 293.445312 114.117188 C 293.371094 114.003906 293.320312 113.878906 293.292969 113.746094 C 293.265625 113.613281 293.269531 113.480469 293.292969 113.347656 C 293.320312 113.214844 293.375 113.089844 293.449219 112.976562 C 293.523438 112.867188 293.617188 112.769531 293.730469 112.695312 Z M 305.265625 117.785156 C 305.796875 117.894531 306.289062 117.800781 306.742188 117.5 C 307.527344 116.976562 308.238281 114.902344 308.378906 114.492188 L 308.578125 113.914062 L 307.972656 113.863281 C 307.542969 113.832031 305.359375 113.683594 304.574219 114.207031 C 304.246094 114.425781 304 114.722656 303.847656 115.089844 C 303.695312 115.457031 303.65625 115.839844 303.730469 116.230469 C 303.804688 116.621094 303.984375 116.957031 304.265625 117.242188 C 304.546875 117.523438 304.878906 117.707031 305.269531 117.785156 Z M 305.09375 115 C 305.371094 114.816406 306.332031 114.753906 307.273438 114.78125 C 306.933594 115.652344 306.5 116.515625 306.222656 116.707031 C 306.109375 116.78125 305.984375 116.832031 305.851562 116.859375 C 305.71875 116.886719 305.585938 116.886719 305.453125 116.859375 C 305.320312 116.832031 305.199219 116.78125 305.085938 116.703125 C 304.972656 116.628906 304.878906 116.535156 304.804688 116.421875 C 304.730469 116.308594 304.679688 116.183594 304.65625 116.050781 C 304.628906 115.917969 304.628906 115.785156 304.65625 115.652344 C 304.683594 115.519531 304.734375 115.394531 304.8125 115.28125 C 304.886719 115.167969 304.980469 115.074219 305.09375 115 Z M 316.625 120.089844 C 317.15625 120.199219 317.648438 120.105469 318.105469 119.804688 C 318.886719 119.28125 319.601562 117.207031 319.742188 116.796875 L 319.9375 116.21875 L 319.335938 116.167969 C 318.90625 116.136719 316.722656 115.988281 315.9375 116.511719 C 315.605469 116.730469 315.363281 117.027344 315.210938 117.394531 C 315.054688 117.761719 315.015625 118.144531 315.09375 118.535156 C 315.167969 118.925781 315.347656 119.261719 315.625 119.546875 C 315.90625 119.828125 316.242188 120.011719 316.632812 120.089844 Z M 316.457031 117.304688 C 316.734375 117.121094 317.695312 117.054688 318.632812 117.085938 C 318.296875 117.957031 317.859375 118.820312 317.582031 119.011719 C 317.46875 119.085938 317.347656 119.136719 317.214844 119.164062 C 317.082031 119.191406 316.949219 119.191406 316.816406 119.164062 C 316.683594 119.136719 316.5625 119.085938 316.449219 119.007812 C 316.335938 118.933594 316.242188 118.839844 316.167969 118.726562 C 316.09375 118.613281 316.042969 118.488281 316.015625 118.355469 C 315.992188 118.222656 315.992188 118.089844 316.019531 117.957031 C 316.046875 117.824219 316.097656 117.699219 316.171875 117.585938 C 316.25 117.472656 316.34375 117.378906 316.457031 117.304688 Z M 327.988281 122.394531 C 328.519531 122.503906 329.011719 122.410156 329.464844 122.109375 C 330.25 121.585938 330.960938 119.511719 331.101562 119.101562 L 331.300781 118.523438 L 330.699219 118.472656 C 330.269531 118.441406 328.085938 118.292969 327.300781 118.816406 C 326.96875 119.035156 326.726562 119.332031 326.570312 119.699219 C 326.417969 120.066406 326.378906 120.449219 326.453125 120.839844 C 326.53125 121.230469 326.707031 121.566406 326.988281 121.851562 C 327.269531 122.132812 327.605469 122.316406 327.996094 122.394531 Z M 327.816406 119.609375 C 328.09375 119.425781 329.058594 119.359375 329.996094 119.390625 C 329.65625 120.261719 329.222656 121.125 328.945312 121.316406 C 328.832031 121.390625 328.710938 121.441406 328.578125 121.46875 C 328.445312 121.496094 328.3125 121.492188 328.179688 121.46875 C 328.046875 121.441406 327.921875 121.390625 327.8125 121.3125 C 327.699219 121.238281 327.605469 121.144531 327.53125 121.03125 C 327.457031 120.917969 327.40625 120.792969 327.378906 120.660156 C 327.351562 120.527344 327.355469 120.394531 327.382812 120.261719 C 327.40625 120.128906 327.460938 120.003906 327.535156 119.890625 C 327.609375 119.777344 327.707031 119.683594 327.816406 119.609375 Z M 286.394531 121.933594 C 286.925781 122.042969 287.417969 121.949219 287.871094 121.648438 C 288.65625 121.125 289.367188 119.050781 289.507812 118.640625 L 289.699219 118.066406 L 289.097656 118.015625 C 288.667969 117.984375 286.484375 117.835938 285.699219 118.359375 C 285.367188 118.582031 285.125 118.875 284.96875 119.242188 C 284.816406 119.609375 284.777344 119.992188 284.851562 120.382812 C 284.929688 120.773438 285.105469 121.113281 285.386719 121.394531 C 285.667969 121.675781 286.003906 121.859375 286.394531 121.9375 Z M 286.21875 119.148438 C 286.496094 118.964844 287.457031 118.898438 288.394531 118.929688 C 288.058594 119.800781 287.621094 120.664062 287.34375 120.855469 C 287.230469 120.929688 287.109375 120.980469 286.976562 121.007812 C 286.84375 121.03125 286.710938 121.03125 286.578125 121.003906 C 286.445312 120.976562 286.324219 120.925781 286.210938 120.851562 C 286.097656 120.773438 286.003906 120.679688 285.929688 120.566406 C 285.855469 120.453125 285.804688 120.332031 285.777344 120.199219 C 285.753906 120.0625 285.753906 119.929688 285.78125 119.796875 C 285.808594 119.664062 285.859375 119.542969 285.933594 119.429688 C 286.011719 119.316406 286.105469 119.222656 286.21875 119.148438 Z M 275.03125 119.628906 C 275.5625 119.738281 276.054688 119.644531 276.507812 119.34375 C 277.292969 118.820312 278.003906 116.746094 278.144531 116.335938 L 278.339844 115.757812 L 277.734375 115.707031 C 277.304688 115.671875 275.121094 115.527344 274.335938 116.050781 C 274.007812 116.269531 273.761719 116.5625 273.609375 116.933594 C 273.457031 117.300781 273.417969 117.679688 273.492188 118.074219 C 273.566406 118.464844 273.746094 118.800781 274.027344 119.085938 C 274.308594 119.367188 274.640625 119.546875 275.03125 119.628906 Z M 274.855469 116.84375 C 275.132812 116.660156 276.09375 116.59375 277.035156 116.625 C 276.695312 117.496094 276.261719 118.359375 275.984375 118.550781 C 275.871094 118.625 275.746094 118.675781 275.613281 118.703125 C 275.480469 118.726562 275.347656 118.726562 275.214844 118.699219 C 275.082031 118.671875 274.960938 118.621094 274.847656 118.546875 C 274.734375 118.46875 274.640625 118.375 274.566406 118.261719 C 274.492188 118.148438 274.441406 118.027344 274.417969 117.894531 C 274.390625 117.761719 274.390625 117.625 274.417969 117.492188 C 274.445312 117.359375 274.496094 117.238281 274.574219 117.125 C 274.648438 117.011719 274.742188 116.917969 274.855469 116.84375 Z M 297.757812 124.234375 C 298.289062 124.347656 298.78125 124.25 299.234375 123.953125 C 300.019531 123.429688 300.730469 121.355469 300.871094 120.945312 L 301.0625 120.371094 L 300.457031 120.320312 C 300.027344 120.289062 297.84375 120.140625 297.0625 120.664062 C 296.730469 120.882812 296.484375 121.179688 296.332031 121.546875 C 296.179688 121.914062 296.140625 122.296875 296.214844 122.6875 C 296.292969 123.078125 296.46875 123.414062 296.75 123.699219 C 297.03125 123.980469 297.363281 124.164062 297.753906 124.242188 Z M 297.578125 121.453125 C 297.855469 121.269531 298.820312 121.203125 299.757812 121.230469 C 299.417969 122.105469 298.984375 122.96875 298.707031 123.160156 C 298.59375 123.234375 298.472656 123.285156 298.339844 123.3125 C 298.207031 123.335938 298.074219 123.335938 297.941406 123.308594 C 297.808594 123.28125 297.683594 123.230469 297.574219 123.15625 C 297.460938 123.078125 297.367188 122.984375 297.292969 122.871094 C 297.21875 122.757812 297.167969 122.636719 297.140625 122.503906 C 297.113281 122.367188 297.117188 122.234375 297.144531 122.101562 C 297.167969 121.96875 297.222656 121.847656 297.296875 121.734375 C 297.371094 121.621094 297.46875 121.527344 297.578125 121.453125 Z M 309.113281 126.539062 C 309.644531 126.648438 310.136719 126.554688 310.589844 126.253906 C 311.375 125.734375 312.085938 123.660156 312.226562 123.25 L 312.417969 122.671875 L 311.816406 122.625 C 311.386719 122.589844 309.203125 122.445312 308.417969 122.96875 C 308.085938 123.1875 307.84375 123.480469 307.6875 123.851562 C 307.535156 124.21875 307.496094 124.597656 307.570312 124.988281 C 307.648438 125.382812 307.824219 125.71875 308.105469 126.003906 C 308.386719 126.285156 308.722656 126.464844 309.109375 126.546875 Z M 308.941406 123.757812 C 309.21875 123.574219 310.179688 123.507812 311.121094 123.535156 C 310.78125 124.410156 310.347656 125.273438 310.070312 125.464844 C 309.957031 125.539062 309.832031 125.589844 309.699219 125.617188 C 309.566406 125.640625 309.433594 125.640625 309.300781 125.613281 C 309.167969 125.585938 309.046875 125.535156 308.933594 125.460938 C 308.820312 125.382812 308.730469 125.289062 308.652344 125.175781 C 308.578125 125.0625 308.527344 124.941406 308.503906 124.808594 C 308.476562 124.671875 308.476562 124.539062 308.503906 124.40625 C 308.53125 124.273438 308.582031 124.152344 308.660156 124.039062 C 308.734375 123.925781 308.828125 123.832031 308.941406 123.757812 Z M 320.472656 128.84375 C 321.003906 128.953125 321.5 128.859375 321.953125 128.558594 C 322.734375 128.039062 323.449219 125.964844 323.589844 125.554688 L 323.78125 124.976562 L 323.175781 124.929688 C 322.746094 124.894531 320.5625 124.75 319.78125 125.273438 C 319.449219 125.492188 319.203125 125.785156 319.050781 126.15625 C 318.898438 126.523438 318.859375 126.902344 318.933594 127.292969 C 319.011719 127.6875 319.1875 128.023438 319.46875 128.308594 C 319.75 128.589844 320.082031 128.769531 320.472656 128.851562 Z M 320.304688 126.0625 C 320.582031 125.878906 321.542969 125.8125 322.480469 125.839844 C 322.144531 126.714844 321.707031 127.578125 321.429688 127.769531 C 321.320312 127.84375 321.195312 127.894531 321.0625 127.917969 C 320.929688 127.945312 320.796875 127.945312 320.664062 127.917969 C 320.53125 127.890625 320.410156 127.839844 320.296875 127.765625 C 320.183594 127.6875 320.089844 127.59375 320.015625 127.480469 C 319.941406 127.367188 319.890625 127.246094 319.863281 127.109375 C 319.839844 126.976562 319.839844 126.84375 319.867188 126.710938 C 319.894531 126.578125 319.945312 126.457031 320.019531 126.34375 C 320.097656 126.230469 320.191406 126.136719 320.304688 126.0625 Z M 279.390625 128.738281 C 279.921875 128.847656 280.414062 128.753906 280.867188 128.457031 C 281.652344 127.933594 282.363281 125.859375 282.503906 125.449219 L 282.695312 124.875 L 282.089844 124.824219 C 281.660156 124.792969 279.480469 124.640625 278.695312 125.164062 C 278.363281 125.386719 278.121094 125.679688 277.964844 126.046875 C 277.8125 126.417969 277.773438 126.796875 277.847656 127.1875 C 277.925781 127.578125 278.101562 127.917969 278.382812 128.199219 C 278.664062 128.484375 279 128.664062 279.386719 128.742188 Z M 279.214844 125.953125 C 279.492188 125.773438 280.453125 125.707031 281.390625 125.734375 C 281.054688 126.609375 280.617188 127.472656 280.339844 127.660156 C 280.167969 127.777344 279.980469 127.832031 279.773438 127.832031 C 279.570312 127.832031 279.382812 127.773438 279.210938 127.65625 C 279.039062 127.542969 278.917969 127.390625 278.839844 127.199219 C 278.761719 127.007812 278.742188 126.8125 278.785156 126.609375 C 278.835938 126.332031 278.980469 126.113281 279.214844 125.953125 Z M 324.832031 137.957031 C 325.363281 138.066406 325.855469 137.972656 326.308594 137.671875 C 327.09375 137.148438 327.804688 135.074219 327.945312 134.667969 L 328.136719 134.089844 L 327.535156 134.042969 C 327.109375 134.011719 324.929688 133.859375 324.144531 134.382812 C 323.8125 134.605469 323.566406 134.898438 323.414062 135.265625 C 323.261719 135.632812 323.222656 136.015625 323.296875 136.40625 C 323.375 136.796875 323.550781 137.136719 323.832031 137.417969 C 324.113281 137.699219 324.445312 137.882812 324.835938 137.960938 Z M 324.660156 135.171875 C 324.9375 134.988281 325.902344 134.925781 326.839844 134.953125 C 326.5 135.824219 326.066406 136.6875 325.789062 136.878906 C 325.617188 136.992188 325.429688 137.050781 325.222656 137.050781 C 325.019531 137.046875 324.828125 136.992188 324.660156 136.875 C 324.488281 136.761719 324.363281 136.605469 324.285156 136.417969 C 324.210938 136.226562 324.191406 136.027344 324.230469 135.828125 C 324.285156 135.546875 324.425781 135.332031 324.660156 135.171875 Z M 324.660156 135.171875 " fill-opacity="1" fill-rule="nonzero" />
      </g>
    </g>
  </g>
  <g clip-path="url(#287bad258f)">
    <g clip-path="url(#1db2ece69c)">
      <g clip-path="url(#368c5ab035)">
        <path fill="#57e0ab" d="M 322.425781 195.691406 C 322.472656 193.824219 322.363281 191.96875 322.101562 190.121094 C 321.839844 188.273438 321.425781 186.457031 320.859375 184.679688 C 320.296875 182.898438 319.585938 181.175781 318.734375 179.511719 C 317.882812 177.847656 316.902344 176.265625 315.785156 174.761719 C 314.671875 173.261719 313.441406 171.859375 312.09375 170.5625 C 310.746094 169.261719 309.300781 168.082031 307.753906 167.023438 C 306.210938 165.960938 304.589844 165.035156 302.894531 164.242188 C 301.195312 163.449219 299.445312 162.800781 297.636719 162.296875 C 296.980469 162.046875 296.300781 161.863281 295.605469 161.75 L 295.597656 161.792969 C 295.050781 161.675781 294.503906 161.570312 293.953125 161.480469 C 292.933594 161.316406 291.910156 161.195312 290.878906 161.125 C 289.847656 161.050781 288.816406 161.023438 287.785156 161.046875 C 286.753906 161.066406 285.722656 161.132812 284.695312 161.25 C 283.671875 161.363281 282.652344 161.523438 281.640625 161.730469 C 280.628906 161.941406 279.628906 162.191406 278.640625 162.492188 C 277.652344 162.789062 276.679688 163.132812 275.722656 163.519531 C 274.769531 163.90625 273.832031 164.335938 272.914062 164.804688 C 271.996094 165.277344 271.105469 165.789062 270.234375 166.34375 C 269.363281 166.898438 268.523438 167.488281 267.707031 168.121094 C 266.890625 168.75 266.105469 169.414062 265.351562 170.117188 C 264.597656 170.816406 263.878906 171.550781 263.191406 172.320312 C 262.503906 173.085938 261.855469 173.882812 261.242188 174.710938 C 260.628906 175.535156 260.054688 176.386719 259.515625 177.265625 C 258.980469 178.144531 258.488281 179.046875 258.035156 179.96875 C 257.582031 180.894531 257.175781 181.835938 256.808594 182.796875 C 256.441406 183.757812 256.121094 184.734375 255.84375 185.726562 L 255.589844 186.648438 L 256.476562 186.273438 C 257.960938 185.648438 259.496094 185.472656 261.082031 185.738281 C 263.980469 186.207031 266.367188 188.082031 267.316406 190.628906 L 267.601562 191.394531 L 268.113281 190.757812 C 269.820312 188.644531 272.679688 187.625 275.578125 188.097656 C 278.476562 188.570312 280.863281 190.445312 281.8125 192.988281 L 282.09375 193.753906 L 282.609375 193.117188 C 283.261719 192.335938 284.039062 191.710938 284.945312 191.238281 C 285.847656 190.765625 286.808594 190.488281 287.828125 190.402344 L 283.9375 214.289062 C 283.859375 214.761719 283.695312 215.203125 283.445312 215.609375 C 283.191406 216.015625 282.871094 216.359375 282.480469 216.636719 C 282.089844 216.917969 281.660156 217.109375 281.195312 217.21875 C 280.726562 217.328125 280.253906 217.34375 279.78125 217.269531 C 279.308594 217.191406 278.867188 217.027344 278.457031 216.773438 C 278.046875 216.523438 277.703125 216.203125 277.421875 215.8125 C 277.140625 215.425781 276.945312 214.996094 276.835938 214.53125 C 276.722656 214.066406 276.707031 213.597656 276.785156 213.125 L 277.050781 211.484375 C 277.082031 211.300781 277.074219 211.121094 277.03125 210.941406 C 276.988281 210.761719 276.914062 210.597656 276.808594 210.449219 C 276.699219 210.300781 276.566406 210.175781 276.410156 210.078125 C 276.25 209.980469 276.082031 209.917969 275.898438 209.890625 C 275.71875 209.859375 275.535156 209.867188 275.355469 209.90625 C 275.175781 209.949219 275.011719 210.023438 274.859375 210.132812 C 274.710938 210.238281 274.589844 210.371094 274.492188 210.527344 C 274.394531 210.683594 274.332031 210.851562 274.300781 211.035156 L 274.035156 212.675781 C 273.964844 213.089844 273.941406 213.507812 273.953125 213.925781 C 273.96875 214.34375 274.027344 214.757812 274.121094 215.167969 C 274.21875 215.574219 274.355469 215.96875 274.53125 216.351562 C 274.703125 216.730469 274.914062 217.09375 275.160156 217.433594 C 275.40625 217.773438 275.683594 218.085938 275.992188 218.371094 C 276.300781 218.660156 276.632812 218.910156 276.992188 219.132812 C 277.351562 219.351562 277.726562 219.535156 278.121094 219.683594 C 278.515625 219.832031 278.921875 219.9375 279.335938 220.007812 C 279.75 220.074219 280.167969 220.101562 280.589844 220.085938 C 281.011719 220.070312 281.425781 220.015625 281.835938 219.921875 C 282.246094 219.824219 282.640625 219.691406 283.023438 219.515625 C 283.40625 219.34375 283.769531 219.132812 284.109375 218.890625 C 284.453125 218.644531 284.765625 218.371094 285.054688 218.0625 C 285.339844 217.757812 285.59375 217.425781 285.816406 217.070312 C 286.035156 216.714844 286.21875 216.339844 286.367188 215.945312 C 286.515625 215.554688 286.621094 215.152344 286.6875 214.738281 L 290.625 190.566406 C 293.273438 191.171875 295.421875 192.96875 296.308594 195.351562 L 296.59375 196.117188 L 297.105469 195.480469 C 298.8125 193.367188 301.671875 192.347656 304.570312 192.820312 C 307.46875 193.292969 309.859375 195.167969 310.804688 197.710938 L 311.089844 198.476562 L 311.601562 197.839844 C 313.308594 195.726562 316.167969 194.707031 319.066406 195.179688 C 320.007812 195.332031 320.902344 195.632812 321.742188 196.085938 L 322.40625 196.445312 Z M 261.238281 184.828125 C 259.800781 184.589844 258.386719 184.679688 256.996094 185.101562 C 257.511719 183.433594 258.15625 181.816406 258.929688 180.253906 C 259.707031 178.6875 260.601562 177.195312 261.613281 175.769531 C 262.628906 174.347656 263.75 173.015625 264.976562 171.769531 C 266.207031 170.527344 267.527344 169.386719 268.9375 168.351562 C 270.347656 167.316406 271.832031 166.402344 273.390625 165.601562 C 274.949219 164.804688 276.558594 164.132812 278.226562 163.589844 C 279.890625 163.046875 281.589844 162.640625 283.320312 162.367188 C 285.050781 162.09375 286.792969 161.957031 288.546875 161.960938 C 286.777344 162.554688 285 163.574219 283.230469 165.015625 C 280.410156 167.316406 277.597656 170.695312 274.851562 175.050781 C 271.199219 180.859375 268.65625 186.914062 267.71875 189.277344 C 266.460938 186.957031 264.0625 185.285156 261.238281 184.828125 Z M 275.726562 187.1875 C 274.539062 186.980469 273.355469 187.011719 272.179688 187.277344 C 271.003906 187.542969 269.925781 188.023438 268.941406 188.714844 C 270.074219 185.964844 272.425781 180.648438 275.640625 175.53125 C 282.738281 164.242188 288.863281 161.996094 292.976562 162.296875 C 292.207031 163.296875 290.714844 165.417969 288.992188 168.898438 C 286.828125 173.261719 283.914062 180.640625 282.03125 191.332031 C 280.730469 189.167969 278.429688 187.625 275.730469 187.1875 Z M 290.695312 189.636719 C 290.539062 189.613281 290.382812 189.570312 290.222656 189.546875 C 289.484375 189.425781 288.742188 189.394531 287.996094 189.445312 C 286.09375 189.570312 284.414062 190.242188 282.953125 191.457031 C 286.292969 172.523438 292.933594 163.796875 294.054688 162.4375 C 294.4375 162.5 294.820312 162.574219 295.199219 162.652344 C 295.507812 163.453125 296.421875 166.09375 297.027344 170.535156 C 297.675781 175.285156 298.089844 183.085938 296.507812 193.664062 C 295.859375 192.625 295.027344 191.753906 294.019531 191.054688 C 293.011719 190.355469 291.902344 189.882812 290.699219 189.640625 Z M 304.714844 191.90625 C 302.019531 191.46875 299.34375 192.199219 297.421875 193.835938 C 299.027344 183.105469 298.605469 175.179688 297.9375 170.355469 C 297.425781 166.582031 296.695312 164.109375 296.277344 162.898438 C 296.640625 162.984375 296.988281 163.074219 297.339844 163.171875 C 303.523438 165.523438 306.804688 173.917969 308.496094 180.878906 C 309.921875 186.753906 310.464844 192.539062 310.664062 195.507812 C 309.953125 194.539062 309.082031 193.742188 308.050781 193.117188 C 307.023438 192.496094 305.910156 192.089844 304.71875 191.90625 Z M 319.207031 194.265625 C 316.382812 193.804688 313.582031 194.628906 311.644531 196.433594 C 311.507812 193.890625 311.015625 187.335938 309.394531 180.675781 C 308.179688 175.671875 306.578125 171.578125 304.632812 168.5 C 303.726562 167.035156 302.636719 165.726562 301.359375 164.574219 C 302.847656 165.203125 304.28125 165.933594 305.664062 166.773438 C 307.042969 167.613281 308.355469 168.546875 309.597656 169.574219 C 310.84375 170.605469 312.003906 171.722656 313.082031 172.921875 C 314.160156 174.121094 315.144531 175.394531 316.039062 176.738281 C 316.929688 178.082031 317.71875 179.480469 318.402344 180.941406 C 319.085938 182.398438 319.660156 183.898438 320.125 185.441406 C 320.585938 186.984375 320.933594 188.550781 321.164062 190.144531 C 321.398438 191.738281 321.511719 193.339844 321.507812 194.949219 C 320.773438 194.625 320.007812 194.398438 319.214844 194.265625 Z M 273.257812 147.242188 C 273.78125 147.332031 274.261719 147.21875 274.691406 146.914062 C 275.4375 146.378906 276.050781 144.339844 276.171875 143.9375 L 276.347656 143.367188 L 275.757812 143.34375 C 275.335938 143.324219 273.199219 143.261719 272.453125 143.796875 C 272.136719 144.023438 271.910156 144.316406 271.773438 144.679688 C 271.636719 145.042969 271.613281 145.414062 271.703125 145.789062 C 271.792969 146.167969 271.980469 146.488281 272.265625 146.753906 C 272.550781 147.015625 272.886719 147.179688 273.269531 147.242188 Z M 272.988281 144.546875 C 273.257812 144.363281 274.195312 144.261719 275.105469 144.257812 C 274.8125 145.117188 274.417969 145.96875 274.15625 146.164062 C 274.050781 146.238281 273.929688 146.292969 273.800781 146.324219 C 273.671875 146.355469 273.542969 146.359375 273.414062 146.335938 C 273.28125 146.316406 273.160156 146.269531 273.046875 146.199219 C 272.933594 146.132812 272.839844 146.042969 272.761719 145.9375 C 272.683594 145.828125 272.632812 145.710938 272.601562 145.582031 C 272.570312 145.453125 272.566406 145.324219 272.585938 145.195312 C 272.609375 145.066406 272.652344 144.945312 272.722656 144.832031 C 272.792969 144.71875 272.878906 144.625 272.988281 144.546875 Z M 284.453125 149.0625 C 284.976562 149.152344 285.453125 149.042969 285.882812 148.734375 C 286.628906 148.199219 287.242188 146.160156 287.367188 145.761719 L 287.535156 145.191406 L 286.945312 145.164062 C 286.523438 145.148438 284.386719 145.085938 283.640625 145.621094 C 283.324219 145.847656 283.097656 146.140625 282.960938 146.503906 C 282.828125 146.867188 282.804688 147.234375 282.894531 147.613281 C 282.980469 147.988281 283.167969 148.308594 283.453125 148.574219 C 283.738281 148.839844 284.074219 149 284.457031 149.0625 Z M 284.175781 146.371094 C 284.441406 146.183594 285.378906 146.085938 286.296875 146.078125 C 286 146.9375 285.609375 147.789062 285.34375 147.984375 C 285.238281 148.0625 285.121094 148.117188 284.992188 148.144531 C 284.863281 148.175781 284.730469 148.179688 284.601562 148.160156 C 284.46875 148.136719 284.347656 148.09375 284.234375 148.023438 C 284.125 147.953125 284.027344 147.863281 283.949219 147.757812 C 283.875 147.652344 283.820312 147.53125 283.789062 147.40625 C 283.757812 147.277344 283.753906 147.148438 283.773438 147.015625 C 283.796875 146.886719 283.839844 146.765625 283.910156 146.652344 C 283.980469 146.542969 284.070312 146.449219 284.175781 146.371094 Z M 295.640625 150.886719 C 296.164062 150.972656 296.640625 150.863281 297.070312 150.554688 C 297.816406 150.023438 298.433594 147.984375 298.554688 147.582031 L 298.722656 147.011719 L 298.132812 146.988281 C 297.710938 146.96875 295.574219 146.90625 294.828125 147.441406 C 294.511719 147.667969 294.285156 147.960938 294.152344 148.324219 C 294.015625 148.6875 293.992188 149.058594 294.082031 149.433594 C 294.171875 149.8125 294.359375 150.132812 294.644531 150.394531 C 294.925781 150.660156 295.261719 150.824219 295.644531 150.886719 Z M 295.363281 148.191406 C 295.628906 148.003906 296.566406 147.90625 297.484375 147.898438 C 297.1875 148.757812 296.796875 149.613281 296.53125 149.808594 C 296.425781 149.882812 296.308594 149.9375 296.179688 149.96875 C 296.050781 149.996094 295.921875 150 295.789062 149.980469 C 295.660156 149.960938 295.535156 149.914062 295.425781 149.84375 C 295.3125 149.773438 295.214844 149.6875 295.140625 149.578125 C 295.0625 149.472656 295.007812 149.355469 294.976562 149.226562 C 294.945312 149.097656 294.941406 148.96875 294.964844 148.839844 C 294.984375 148.707031 295.03125 148.589844 295.101562 148.476562 C 295.167969 148.363281 295.257812 148.269531 295.363281 148.191406 Z M 306.828125 152.707031 C 307.351562 152.792969 307.828125 152.683594 308.261719 152.378906 C 309.007812 151.84375 309.621094 149.804688 309.742188 149.402344 L 309.914062 148.832031 L 309.320312 148.808594 C 308.902344 148.789062 306.761719 148.730469 306.015625 149.261719 C 305.703125 149.488281 305.476562 149.785156 305.339844 150.144531 C 305.203125 150.507812 305.179688 150.878906 305.269531 151.253906 C 305.359375 151.632812 305.546875 151.953125 305.832031 152.21875 C 306.117188 152.480469 306.449219 152.644531 306.835938 152.707031 Z M 306.554688 150.015625 C 306.816406 149.828125 307.753906 149.726562 308.671875 149.722656 C 308.375 150.582031 307.984375 151.433594 307.722656 151.628906 C 307.613281 151.707031 307.496094 151.757812 307.367188 151.789062 C 307.238281 151.820312 307.109375 151.824219 306.976562 151.800781 C 306.847656 151.78125 306.726562 151.734375 306.613281 151.667969 C 306.5 151.597656 306.40625 151.507812 306.328125 151.402344 C 306.25 151.292969 306.195312 151.175781 306.164062 151.046875 C 306.136719 150.921875 306.128906 150.789062 306.152344 150.660156 C 306.171875 150.53125 306.21875 150.410156 306.289062 150.296875 C 306.359375 150.1875 306.445312 150.089844 306.554688 150.015625 Z M 318.015625 154.527344 C 318.539062 154.617188 319.019531 154.507812 319.449219 154.199219 C 320.195312 153.664062 320.808594 151.628906 320.929688 151.226562 L 321.101562 150.65625 L 320.511719 150.628906 C 320.089844 150.613281 317.953125 150.550781 317.207031 151.085938 C 316.890625 151.3125 316.664062 151.605469 316.527344 151.96875 C 316.390625 152.332031 316.367188 152.699219 316.457031 153.078125 C 316.546875 153.453125 316.734375 153.773438 317.019531 154.039062 C 317.304688 154.304688 317.636719 154.46875 318.023438 154.53125 Z M 317.742188 151.835938 C 318.007812 151.648438 318.941406 151.550781 319.859375 151.542969 C 319.566406 152.402344 319.171875 153.253906 318.910156 153.449219 C 318.800781 153.527344 318.683594 153.582031 318.554688 153.609375 C 318.425781 153.640625 318.296875 153.644531 318.167969 153.625 C 318.035156 153.601562 317.914062 153.558594 317.800781 153.488281 C 317.6875 153.417969 317.59375 153.332031 317.515625 153.222656 C 317.4375 153.117188 317.382812 153 317.355469 152.871094 C 317.324219 152.742188 317.320312 152.613281 317.339844 152.484375 C 317.363281 152.351562 317.40625 152.230469 317.476562 152.121094 C 317.546875 152.007812 317.632812 151.914062 317.742188 151.835938 Z M 277.371094 155.59375 C 277.890625 155.679688 278.371094 155.570312 278.800781 155.265625 C 279.546875 154.730469 280.160156 152.691406 280.28125 152.289062 L 280.445312 151.722656 L 279.855469 151.699219 C 279.433594 151.679688 277.296875 151.621094 276.550781 152.15625 C 276.234375 152.378906 276.007812 152.675781 275.875 153.039062 C 275.738281 153.398438 275.714844 153.769531 275.804688 154.148438 C 275.894531 154.523438 276.082031 154.84375 276.363281 155.109375 C 276.648438 155.375 276.984375 155.535156 277.367188 155.597656 Z M 277.089844 152.898438 C 277.351562 152.710938 278.289062 152.613281 279.207031 152.609375 C 278.910156 153.464844 278.519531 154.320312 278.257812 154.515625 C 278.148438 154.589844 278.03125 154.644531 277.902344 154.675781 C 277.773438 154.703125 277.644531 154.710938 277.511719 154.6875 C 277.382812 154.667969 277.261719 154.621094 277.148438 154.550781 C 277.035156 154.484375 276.941406 154.394531 276.863281 154.289062 C 276.785156 154.179688 276.730469 154.0625 276.699219 153.933594 C 276.671875 153.804688 276.664062 153.675781 276.6875 153.546875 C 276.707031 153.417969 276.753906 153.296875 276.824219 153.183594 C 276.894531 153.070312 276.980469 152.976562 277.089844 152.898438 Z M 266.179688 153.773438 C 266.703125 153.859375 267.179688 153.75 267.613281 153.441406 C 268.359375 152.90625 268.972656 150.871094 269.09375 150.46875 L 269.257812 149.898438 L 268.667969 149.871094 C 268.246094 149.855469 266.109375 149.792969 265.363281 150.328125 C 265.046875 150.554688 264.820312 150.847656 264.6875 151.210938 C 264.550781 151.574219 264.527344 151.941406 264.617188 152.320312 C 264.707031 152.695312 264.894531 153.015625 265.175781 153.28125 C 265.460938 153.546875 265.796875 153.710938 266.179688 153.773438 Z M 265.898438 151.078125 C 266.164062 150.890625 267.101562 150.792969 268.019531 150.785156 C 267.722656 151.644531 267.332031 152.496094 267.066406 152.691406 C 266.960938 152.769531 266.84375 152.824219 266.714844 152.851562 C 266.585938 152.882812 266.457031 152.886719 266.324219 152.867188 C 266.195312 152.84375 266.070312 152.800781 265.960938 152.730469 C 265.847656 152.660156 265.75 152.574219 265.675781 152.464844 C 265.597656 152.359375 265.542969 152.242188 265.511719 152.113281 C 265.480469 151.984375 265.476562 151.855469 265.5 151.726562 C 265.519531 151.59375 265.566406 151.472656 265.632812 151.363281 C 265.703125 151.25 265.792969 151.15625 265.898438 151.078125 Z M 288.558594 157.414062 C 289.082031 157.503906 289.558594 157.394531 289.988281 157.085938 C 290.734375 156.550781 291.351562 154.511719 291.472656 154.113281 L 291.636719 153.546875 L 291.042969 153.519531 C 290.625 153.503906 288.484375 153.441406 287.738281 153.976562 C 287.421875 154.203125 287.199219 154.496094 287.0625 154.859375 C 286.925781 155.222656 286.902344 155.589844 286.992188 155.96875 C 287.082031 156.347656 287.269531 156.667969 287.554688 156.929688 C 287.839844 157.195312 288.171875 157.359375 288.558594 157.421875 Z M 288.277344 154.722656 C 288.539062 154.535156 289.476562 154.433594 290.394531 154.429688 C 290.097656 155.289062 289.707031 156.140625 289.445312 156.335938 C 289.335938 156.414062 289.21875 156.464844 289.089844 156.496094 C 288.960938 156.527344 288.832031 156.53125 288.703125 156.511719 C 288.570312 156.488281 288.449219 156.441406 288.335938 156.375 C 288.222656 156.304688 288.128906 156.214844 288.050781 156.109375 C 287.972656 156.003906 287.917969 155.882812 287.890625 155.757812 C 287.859375 155.628906 287.855469 155.5 287.875 155.367188 C 287.898438 155.238281 287.941406 155.117188 288.011719 155.003906 C 288.082031 154.894531 288.167969 154.796875 288.277344 154.722656 Z M 299.742188 159.234375 C 300.265625 159.324219 300.742188 159.214844 301.171875 158.90625 C 301.917969 158.371094 302.53125 156.335938 302.65625 155.933594 L 302.816406 155.367188 L 302.226562 155.34375 C 301.804688 155.324219 299.667969 155.261719 298.921875 155.796875 C 298.605469 156.023438 298.382812 156.316406 298.246094 156.679688 C 298.109375 157.042969 298.085938 157.414062 298.175781 157.789062 C 298.265625 158.167969 298.453125 158.488281 298.738281 158.75 C 299.019531 159.015625 299.355469 159.179688 299.738281 159.242188 Z M 299.464844 156.542969 C 299.730469 156.355469 300.667969 156.257812 301.585938 156.25 C 301.289062 157.109375 300.898438 157.960938 300.632812 158.15625 C 300.527344 158.234375 300.40625 158.289062 300.277344 158.320312 C 300.148438 158.347656 300.019531 158.351562 299.890625 158.332031 C 299.757812 158.308594 299.636719 158.265625 299.523438 158.195312 C 299.410156 158.125 299.316406 158.039062 299.238281 157.929688 C 299.160156 157.824219 299.109375 157.707031 299.078125 157.578125 C 299.046875 157.449219 299.042969 157.320312 299.0625 157.191406 C 299.085938 157.058594 299.128906 156.9375 299.199219 156.828125 C 299.269531 156.714844 299.359375 156.621094 299.464844 156.542969 Z M 310.929688 161.058594 C 311.453125 161.144531 311.929688 161.035156 312.359375 160.730469 C 313.105469 160.195312 313.722656 158.15625 313.84375 157.753906 L 314.007812 157.1875 L 313.414062 157.164062 C 312.996094 157.144531 310.855469 157.085938 310.109375 157.617188 C 309.796875 157.84375 309.570312 158.140625 309.433594 158.5 C 309.296875 158.863281 309.273438 159.234375 309.363281 159.613281 C 309.453125 159.988281 309.640625 160.308594 309.925781 160.574219 C 310.210938 160.835938 310.542969 161 310.929688 161.0625 Z M 310.652344 158.363281 C 310.917969 158.175781 311.855469 158.078125 312.773438 158.074219 C 312.476562 158.933594 312.085938 159.785156 311.820312 159.980469 C 311.714844 160.054688 311.597656 160.109375 311.46875 160.140625 C 311.339844 160.171875 311.207031 160.175781 311.078125 160.152344 C 310.949219 160.132812 310.824219 160.085938 310.714844 160.015625 C 310.601562 159.949219 310.503906 159.859375 310.429688 159.753906 C 310.351562 159.644531 310.296875 159.527344 310.265625 159.398438 C 310.234375 159.269531 310.230469 159.140625 310.253906 159.011719 C 310.273438 158.882812 310.320312 158.761719 310.386719 158.648438 C 310.457031 158.535156 310.546875 158.441406 310.652344 158.363281 Z M 270.792969 162.449219 C 271.316406 162.535156 271.792969 162.425781 272.222656 162.121094 C 272.96875 161.585938 273.585938 159.546875 273.707031 159.144531 L 273.871094 158.582031 L 273.28125 158.554688 C 272.859375 158.542969 270.722656 158.46875 269.976562 159.007812 C 269.660156 159.234375 269.433594 159.527344 269.296875 159.890625 C 269.160156 160.253906 269.136719 160.625 269.226562 161 C 269.316406 161.378906 269.503906 161.699219 269.789062 161.964844 C 270.074219 162.226562 270.40625 162.390625 270.792969 162.453125 Z M 270.511719 159.757812 C 270.777344 159.570312 271.710938 159.46875 272.628906 159.464844 C 272.335938 160.324219 271.945312 161.175781 271.679688 161.371094 C 271.515625 161.488281 271.335938 161.546875 271.132812 161.554688 C 270.933594 161.5625 270.746094 161.511719 270.578125 161.40625 C 270.40625 161.300781 270.277344 161.15625 270.195312 160.976562 C 270.113281 160.792969 270.085938 160.601562 270.117188 160.40625 C 270.15625 160.132812 270.289062 159.917969 270.511719 159.757812 Z M 315.539062 169.734375 C 316.0625 169.824219 316.542969 169.714844 316.972656 169.40625 C 317.71875 168.871094 318.332031 166.835938 318.453125 166.433594 L 318.617188 165.867188 L 318.027344 165.84375 C 317.613281 165.828125 315.476562 165.757812 314.726562 166.296875 C 314.414062 166.523438 314.1875 166.816406 314.050781 167.179688 C 313.914062 167.542969 313.890625 167.910156 313.980469 168.289062 C 314.070312 168.664062 314.257812 168.984375 314.542969 169.25 C 314.828125 169.515625 315.160156 169.679688 315.546875 169.742188 Z M 315.265625 167.042969 C 315.53125 166.855469 316.464844 166.757812 317.382812 166.75 C 317.089844 167.609375 316.695312 168.460938 316.433594 168.65625 C 316.269531 168.773438 316.089844 168.835938 315.886719 168.84375 C 315.6875 168.847656 315.5 168.800781 315.328125 168.695312 C 315.160156 168.589844 315.03125 168.445312 314.949219 168.261719 C 314.863281 168.082031 314.839844 167.890625 314.871094 167.691406 C 314.910156 167.421875 315.042969 167.203125 315.265625 167.042969 Z M 315.265625 167.042969 " fill-opacity="1" fill-rule="nonzero" />
      </g>
    </g>
  </g>
  <g clip-path="url(#c23a9a650e)">
    <g clip-path="url(#7050b9ce64)">
      <g clip-path="url(#1f41ee3e94)">
        <g clip-path="url(#3e630f3ca3)">
          <path fill="#221f1f" d="M 312.519531 191.875 L 276.144531 186.070312 L 276.160156 185.960938 L 312.535156 191.761719 Z M 311.976562 195.28125 L 275.597656 189.476562 L 275.582031 189.589844 L 311.957031 195.390625 Z M 311.410156 198.8125 L 275.035156 193.011719 L 275.019531 193.121094 L 311.394531 198.925781 Z M 310.851562 202.332031 L 274.476562 196.527344 L 274.457031 196.640625 L 310.832031 202.441406 Z M 310.289062 205.847656 L 273.914062 200.046875 L 273.894531 200.15625 L 310.269531 205.960938 Z M 309.726562 209.367188 L 273.351562 203.5625 L 273.335938 203.675781 L 309.710938 209.476562 Z M 309.164062 212.898438 L 272.789062 207.097656 L 272.769531 207.207031 L 309.148438 213.011719 Z M 308.601562 216.417969 L 272.226562 210.613281 L 272.210938 210.726562 L 308.585938 216.527344 Z M 308.042969 219.933594 L 271.667969 214.132812 L 271.648438 214.246094 L 308.023438 220.046875 Z M 307.480469 223.46875 L 271.101562 217.664062 L 271.085938 217.777344 L 307.460938 223.578125 Z M 307.480469 223.46875 " fill-opacity="1" fill-rule="nonzero" />
        </g>
      </g>
    </g>
  </g>
  <g clip-path="url(#67da5e04e1)">
    <g clip-path="url(#1b933baa6b)">
      <g clip-path="url(#f37134beb0)">
        <g clip-path="url(#b8d20a48ad)">
          <path fill="#221f1f" d="M 330.441406 175.59375 L 294.066406 169.792969 L 294.085938 169.679688 L 330.460938 175.480469 Z M 329.898438 179 L 293.523438 173.199219 L 293.507812 173.308594 L 329.882812 179.113281 Z M 329.335938 182.53125 L 292.960938 176.730469 L 292.941406 176.839844 L 329.320312 182.644531 Z M 328.773438 186.050781 L 292.398438 180.25 L 292.382812 180.359375 L 328.757812 186.164062 Z M 328.214844 189.570312 L 291.839844 183.765625 L 291.820312 183.878906 L 328.195312 189.679688 Z M 327.652344 193.085938 L 291.277344 187.285156 L 291.257812 187.394531 L 327.636719 193.199219 Z M 327.089844 196.617188 L 290.714844 190.816406 L 290.695312 190.929688 L 327.070312 196.730469 Z M 326.527344 200.136719 L 290.152344 194.335938 L 290.132812 194.445312 L 326.511719 200.25 Z M 325.96875 203.65625 L 289.589844 197.851562 L 289.574219 197.964844 L 325.949219 203.765625 Z M 325.402344 207.1875 L 289.027344 201.386719 L 289.011719 201.496094 L 325.386719 207.300781 Z M 325.402344 207.1875 " fill-opacity="1" fill-rule="nonzero" />
        </g>
      </g>
    </g>
  </g>
  <g fill="#000000" fill-opacity="1">
    <g transform="translate(278.916715, 182.424312)">
      <g>
        <path d="M 2.953125 -9.6875 C 3.035156 -10.320312 3.007812 -10.800781 2.875 -11.125 C 2.738281 -11.457031 2.410156 -11.65625 1.890625 -11.71875 L 1.703125 -11.75 L 1.765625 -12.296875 L 10 -11.296875 C 11.0625 -11.171875 11.535156 -10.613281 11.421875 -9.625 L 11.21875 -8.03125 L 10.671875 -8.09375 C 10.765625 -8.863281 10.632812 -9.453125 10.28125 -9.859375 C 9.9375 -10.273438 9.378906 -10.53125 8.609375 -10.625 L 5.59375 -11 L 5.03125 -6.328125 L 9.890625 -5.734375 L 9.78125 -4.890625 L 4.921875 -5.484375 L 4.296875 -0.34375 L 7.5 0.046875 C 8.207031 0.128906 8.816406 0.0390625 9.328125 -0.21875 C 9.835938 -0.476562 10.300781 -0.984375 10.71875 -1.734375 L 11.203125 -1.484375 L 10.46875 -0.046875 C 10.25 0.367188 10.015625 0.664062 9.765625 0.84375 C 9.523438 1.03125 9.164062 1.097656 8.6875 1.046875 L 1.765625 0.21875 Z M 2.953125 -9.6875 " />
      </g>
    </g>
  </g>
  <g fill="#000000" fill-opacity="1">
    <g transform="translate(291.665417, 202.057075)">
      <g>
        <path d="M 6.8125 1.203125 C 5.53125 1.046875 4.457031 0.640625 3.59375 -0.015625 C 2.738281 -0.679688 2.125 -1.523438 1.75 -2.546875 C 1.382812 -3.578125 1.273438 -4.695312 1.421875 -5.90625 C 1.578125 -7.144531 1.976562 -8.242188 2.625 -9.203125 C 3.28125 -10.171875 4.113281 -10.894531 5.125 -11.375 C 6.144531 -11.851562 7.234375 -12.019531 8.390625 -11.875 C 9.484375 -11.738281 10.378906 -11.488281 11.078125 -11.125 C 11.773438 -10.757812 12.296875 -10.332031 12.640625 -9.84375 C 12.835938 -9.519531 12.929688 -9.144531 12.921875 -8.71875 C 12.921875 -8.289062 12.875 -7.695312 12.78125 -6.9375 L 12.21875 -7.015625 C 12.125 -8.171875 11.789062 -9.085938 11.21875 -9.765625 C 10.65625 -10.453125 9.863281 -10.859375 8.84375 -10.984375 C 7.5625 -11.140625 6.5 -10.8125 5.65625 -10 C 4.820312 -9.195312 4.273438 -7.726562 4.015625 -5.59375 C 3.828125 -4.007812 4.007812 -2.648438 4.5625 -1.515625 C 5.113281 -0.390625 6.085938 0.253906 7.484375 0.421875 C 8.359375 0.523438 9.1875 0.390625 9.96875 0.015625 C 10.75 -0.347656 11.414062 -0.9375 11.96875 -1.75 L 12.546875 -1.171875 C 11.828125 -0.203125 11.015625 0.472656 10.109375 0.859375 C 9.210938 1.242188 8.113281 1.359375 6.8125 1.203125 Z M 6.8125 1.203125 " />
      </g>
    </g>
  </g>
  <g fill="#57e0ab" fill-opacity="1">
    <g transform="translate(2.828125, 202.382447)">
      <g>
        <path d="M 6.796875 -35.421875 C 6.796875 -37.671875 6.488281 -39.332031 5.875 -40.40625 C 5.257812 -41.476562 4.023438 -42.015625 2.171875 -42.015625 L 1.0625 -42.015625 L 1.0625 -43.546875 L 29.421875 -43.546875 C 33.160156 -43.546875 35.03125 -41.785156 35.03125 -38.265625 L 35.03125 -33.109375 L 33.515625 -33.109375 C 33.515625 -38.253906 30.765625 -40.828125 25.265625 -40.828125 L 13.453125 -40.828125 L 13.453125 -23.8125 L 31.078125 -23.8125 L 31.078125 -21.109375 L 13.453125 -21.109375 L 13.453125 -2.703125 L 24.9375 -2.703125 C 27.789062 -2.703125 30.0625 -3.257812 31.75 -4.375 C 33.445312 -5.5 34.828125 -7.382812 35.890625 -10.03125 L 37.34375 -9.625 L 35.15625 -3.625 C 34.71875 -2.4375 34.101562 -1.535156 33.3125 -0.921875 C 32.519531 -0.304688 31.421875 0 30.015625 0 L 6.796875 0 Z M 6.796875 -35.421875 " />
      </g>
    </g>
  </g>
  <g fill="#50d1a0" fill-opacity="1">
    <g transform="translate(41.933592, 202.382447)">
      <g>
        <path d="M 12.40625 0.65625 C 9.71875 0.65625 7.375 -0.0976562 5.375 -1.609375 C 3.375 -3.128906 2.375 -5.429688 2.375 -8.515625 C 2.375 -11.804688 3.867188 -14.1875 6.859375 -15.65625 C 9.847656 -17.132812 14.046875 -17.875 19.453125 -17.875 L 21.171875 -17.875 C 21.171875 -22.050781 20.597656 -24.941406 19.453125 -26.546875 C 18.316406 -28.148438 16.648438 -28.953125 14.453125 -28.953125 C 12.554688 -28.953125 11.023438 -28.523438 9.859375 -27.671875 C 8.691406 -26.816406 7.867188 -25.332031 7.390625 -23.21875 L 4.21875 -23.21875 C 4.21875 -24.71875 4.304688 -25.925781 4.484375 -26.84375 C 4.660156 -27.769531 5.125 -28.609375 5.875 -29.359375 C 6.664062 -30.148438 7.953125 -30.734375 9.734375 -31.109375 C 11.515625 -31.484375 13.523438 -31.671875 15.765625 -31.671875 C 19.546875 -31.671875 22.503906 -30.65625 24.640625 -28.625 C 26.773438 -26.601562 27.84375 -23 27.84375 -17.8125 L 27.84375 0 L 23.953125 0 L 21.640625 -2.96875 L 21.3125 -2.96875 C 20.519531 -1.957031 19.375 -1.097656 17.875 -0.390625 C 16.382812 0.304688 14.5625 0.65625 12.40625 0.65625 Z M 15.109375 -2.375 C 17.660156 -2.375 19.679688 -3.738281 21.171875 -6.46875 L 21.171875 -15.171875 L 19.453125 -15.171875 C 16.203125 -15.171875 13.707031 -14.585938 11.96875 -13.421875 C 10.238281 -12.253906 9.375 -10.617188 9.375 -8.515625 C 9.375 -6.535156 9.910156 -5.015625 10.984375 -3.953125 C 12.054688 -2.898438 13.429688 -2.375 15.109375 -2.375 Z M 15.109375 -2.375 " />
      </g>
    </g>
  </g>
  <g fill="#50c89a" fill-opacity="1">
    <g transform="translate(73.925777, 202.382447)">
      <g>
        <path d="M 15.109375 0.65625 C 10.046875 0.65625 6.59375 -0.222656 4.75 -1.984375 C 4.039062 -2.722656 3.597656 -3.597656 3.421875 -4.609375 C 3.253906 -5.628906 3.171875 -7.148438 3.171875 -9.171875 L 4.75 -9.171875 C 5.144531 -6.929688 6.078125 -5.179688 7.546875 -3.921875 C 9.023438 -2.671875 11.101562 -2.046875 13.78125 -2.046875 C 16.15625 -2.046875 17.925781 -2.460938 19.09375 -3.296875 C 20.257812 -4.128906 20.84375 -5.25 20.84375 -6.65625 C 20.84375 -7.9375 20.359375 -9.003906 19.390625 -9.859375 C 18.421875 -10.722656 16.925781 -11.570312 14.90625 -12.40625 L 11.078125 -14.046875 C 8.398438 -15.148438 6.390625 -16.40625 5.046875 -17.8125 C 3.703125 -19.21875 3.03125 -20.953125 3.03125 -23.015625 C 3.03125 -25.742188 4.070312 -27.867188 6.15625 -29.390625 C 8.25 -30.910156 10.988281 -31.671875 14.375 -31.671875 C 19.257812 -31.671875 22.625 -30.789062 24.46875 -29.03125 C 25.21875 -28.28125 25.679688 -27.410156 25.859375 -26.421875 C 26.035156 -25.429688 26.125 -23.898438 26.125 -21.828125 L 24.546875 -21.828125 C 24.148438 -24.078125 23.210938 -25.828125 21.734375 -27.078125 C 20.265625 -28.328125 18.253906 -28.953125 15.703125 -28.953125 C 13.679688 -28.953125 12.117188 -28.523438 11.015625 -27.671875 C 9.921875 -26.816406 9.375 -25.707031 9.375 -24.34375 C 9.375 -22.1875 11.066406 -20.382812 14.453125 -18.9375 L 18.40625 -17.28125 C 21.4375 -16.007812 23.65625 -14.679688 25.0625 -13.296875 C 26.46875 -11.910156 27.171875 -10.140625 27.171875 -7.984375 C 27.171875 -5.253906 26.050781 -3.128906 23.8125 -1.609375 C 21.570312 -0.0976562 18.671875 0.65625 15.109375 0.65625 Z M 15.109375 0.65625 " />
      </g>
    </g>
  </g>
  <g fill="#4bbf92" fill-opacity="1">
    <g transform="translate(103.738275, 202.382447)">
      <g>
        <path d="M 6.734375 11.15625 C 8.929688 11.15625 10.742188 10.671875 12.171875 9.703125 C 13.597656 8.734375 14.796875 6.953125 15.765625 4.359375 L 17.078125 0.71875 L 6.203125 -25.0625 C 4.921875 -28.226562 2.585938 -29.988281 -0.796875 -30.34375 L -0.796875 -31.671875 L 4.875 -31.671875 C 6.8125 -31.671875 8.460938 -31.207031 9.828125 -30.28125 C 11.191406 -29.351562 12.25 -28.054688 13 -26.390625 L 20.515625 -8.578125 L 28.765625 -31 L 32.125 -31 L 19.125 4.28125 C 17.851562 7.71875 16.4375 10.0625 14.875 11.3125 C 13.3125 12.5625 11.300781 13.1875 8.84375 13.1875 L 6.734375 13.1875 Z M 6.734375 11.15625 " />
      </g>
    </g>
  </g>
  <g fill="#57e0ab" fill-opacity="1">
    <g transform="translate(137.570304, 202.382447)">
      <g />
    </g>
  </g>
  <g fill="#4bbf92" fill-opacity="1">
    <g transform="translate(154.058588, 202.382447)">
      <g>
        <path d="M 23.546875 1.3125 C 19.367188 1.3125 15.707031 0.320312 12.5625 -1.65625 C 9.414062 -3.632812 6.992188 -6.328125 5.296875 -9.734375 C 3.609375 -13.140625 2.765625 -16.929688 2.765625 -21.109375 C 2.765625 -25.460938 3.6875 -29.453125 5.53125 -33.078125 C 7.382812 -36.710938 9.90625 -39.582031 13.09375 -41.6875 C 16.28125 -43.800781 19.765625 -44.859375 23.546875 -44.859375 C 27.148438 -44.859375 30.28125 -44.363281 32.9375 -43.375 C 35.601562 -42.382812 37.578125 -41.117188 38.859375 -39.578125 C 39.609375 -38.660156 40.066406 -37.453125 40.234375 -35.953125 C 40.410156 -34.453125 40.5 -32.34375 40.5 -29.625 L 39.046875 -29.625 C 37.421875 -37.976562 32.914062 -42.15625 25.53125 -42.15625 C 20.863281 -42.15625 17.125 -40.503906 14.3125 -37.203125 C 11.5 -33.910156 10.09375 -28.546875 10.09375 -21.109375 C 10.09375 -17.640625 10.628906 -14.40625 11.703125 -11.40625 C 12.785156 -8.414062 14.488281 -6 16.8125 -4.15625 C 19.144531 -2.3125 22.050781 -1.390625 25.53125 -1.390625 C 31.726562 -1.390625 36.675781 -4.488281 40.375 -10.6875 L 41.953125 -9.5 C 39.890625 -5.625 37.375 -2.851562 34.40625 -1.1875 C 31.4375 0.476562 27.816406 1.3125 23.546875 1.3125 Z M 23.546875 1.3125 " />
      </g>
    </g>
  </g>
  <g fill="#4ec899" fill-opacity="1">
    <g transform="translate(198.179675, 202.382447)">
      <g>
        <path d="M 17.671875 0.65625 C 14.640625 0.65625 12.003906 -0.0546875 9.765625 -1.484375 C 7.523438 -2.910156 5.8125 -4.84375 4.625 -7.28125 C 3.4375 -9.726562 2.84375 -12.46875 2.84375 -15.5 C 2.84375 -18.53125 3.4375 -21.265625 4.625 -23.703125 C 5.8125 -26.148438 7.523438 -28.085938 9.765625 -29.515625 C 12.003906 -30.953125 14.640625 -31.671875 17.671875 -31.671875 C 20.710938 -31.671875 23.351562 -30.953125 25.59375 -29.515625 C 27.832031 -28.085938 29.546875 -26.148438 30.734375 -23.703125 C 31.921875 -21.265625 32.515625 -18.53125 32.515625 -15.5 C 32.515625 -12.46875 31.921875 -9.726562 30.734375 -7.28125 C 29.546875 -4.84375 27.832031 -2.910156 25.59375 -1.484375 C 23.351562 -0.0546875 20.710938 0.65625 17.671875 0.65625 Z M 17.671875 -2.046875 C 20.046875 -2.046875 21.957031 -3.320312 23.40625 -5.875 C 24.863281 -8.425781 25.59375 -11.632812 25.59375 -15.5 C 25.59375 -19.375 24.863281 -22.582031 23.40625 -25.125 C 21.957031 -27.675781 20.046875 -28.953125 17.671875 -28.953125 C 15.304688 -28.953125 13.394531 -27.675781 11.9375 -25.125 C 10.488281 -22.582031 9.765625 -19.375 9.765625 -15.5 C 9.765625 -11.632812 10.488281 -8.425781 11.9375 -5.875 C 13.394531 -3.320312 15.304688 -2.046875 17.671875 -2.046875 Z M 17.671875 -2.046875 " />
      </g>
    </g>
  </g>
  <g fill="#48bd90" fill-opacity="1">
    <g transform="translate(233.535145, 202.382447)">
      <g>
        <path d="M 6.140625 -23.421875 C 5.078125 -25.878906 4.070312 -27.601562 3.125 -28.59375 C 2.1875 -29.582031 0.988281 -30.125 -0.46875 -30.21875 L -0.46875 -31.53125 C -0.238281 -31.53125 0.09375 -31.550781 0.53125 -31.59375 C 0.96875 -31.644531 1.40625 -31.671875 1.84375 -31.671875 C 4.351562 -31.671875 6.5625 -31.085938 8.46875 -29.921875 C 10.382812 -28.753906 12.046875 -26.585938 13.453125 -23.421875 L 19.328125 -9.625 L 28.5 -31 L 31.859375 -31 L 18.203125 0.65625 L 16.625 0.65625 Z M 6.140625 -23.421875 " />
      </g>
    </g>
  </g>
  <g fill="#57e0ab" fill-opacity="1">
    <g transform="translate(266.382796, 202.382447)">
      <g />
    </g>
  </g>
  <g fill="#57e0ab" fill-opacity="1">
    <g transform="translate(282.873994, 202.382447)">
      <g />
    </g>
  </g>
  <g fill="#57e0ab" fill-opacity="1">
    <g transform="translate(299.365193, 202.382447)">
      <g />
    </g>
  </g>
  <g fill="#45b287" fill-opacity="1">
    <g transform="translate(315.84764, 202.382447)">
      <g>
        <path d="M 5.28125 -22.890625 C 5.28125 -25.128906 4.972656 -26.785156 4.359375 -27.859375 C 3.742188 -28.941406 2.507812 -29.484375 0.65625 -29.484375 L 0 -29.484375 L 0 -31 L 5.609375 -31 C 7.234375 -31 8.472656 -30.78125 9.328125 -30.34375 C 10.191406 -29.90625 10.820312 -29.179688 11.21875 -28.171875 C 12.132812 -29.085938 13.304688 -29.898438 14.734375 -30.609375 C 16.171875 -31.316406 17.742188 -31.671875 19.453125 -31.671875 C 21.210938 -31.671875 22.597656 -31.316406 23.609375 -30.609375 C 24.097656 -30.210938 24.503906 -29.796875 24.828125 -29.359375 C 25.160156 -28.921875 25.523438 -28.347656 25.921875 -27.640625 L 23.09375 -25.46875 C 22.601562 -26.125 21.90625 -26.648438 21 -27.046875 C 20.101562 -27.441406 19.109375 -27.640625 18.015625 -27.640625 C 16.691406 -27.640625 15.488281 -27.375 14.40625 -26.84375 C 13.332031 -26.320312 12.46875 -25.597656 11.8125 -24.671875 C 11.851562 -24.140625 11.875 -23.367188 11.875 -22.359375 L 11.875 0 L 5.28125 0 Z M 5.28125 -22.890625 " />
      </g>
    </g>
  </g>
  <g fill="#3e9f7a" fill-opacity="1">
    <g transform="translate(342.355451, 202.382447)">
      <g>
        <path d="M 15.109375 0.65625 C 10.046875 0.65625 6.59375 -0.222656 4.75 -1.984375 C 4.039062 -2.722656 3.597656 -3.597656 3.421875 -4.609375 C 3.253906 -5.628906 3.171875 -7.148438 3.171875 -9.171875 L 4.75 -9.171875 C 5.144531 -6.929688 6.078125 -5.179688 7.546875 -3.921875 C 9.023438 -2.671875 11.101562 -2.046875 13.78125 -2.046875 C 16.15625 -2.046875 17.925781 -2.460938 19.09375 -3.296875 C 20.257812 -4.128906 20.84375 -5.25 20.84375 -6.65625 C 20.84375 -7.9375 20.359375 -9.003906 19.390625 -9.859375 C 18.421875 -10.722656 16.925781 -11.570312 14.90625 -12.40625 L 11.078125 -14.046875 C 8.398438 -15.148438 6.390625 -16.40625 5.046875 -17.8125 C 3.703125 -19.21875 3.03125 -20.953125 3.03125 -23.015625 C 3.03125 -25.742188 4.070312 -27.867188 6.15625 -29.390625 C 8.25 -30.910156 10.988281 -31.671875 14.375 -31.671875 C 19.257812 -31.671875 22.625 -30.789062 24.46875 -29.03125 C 25.21875 -28.28125 25.679688 -27.410156 25.859375 -26.421875 C 26.035156 -25.429688 26.125 -23.898438 26.125 -21.828125 L 24.546875 -21.828125 C 24.148438 -24.078125 23.210938 -25.828125 21.734375 -27.078125 C 20.265625 -28.328125 18.253906 -28.953125 15.703125 -28.953125 C 13.679688 -28.953125 12.117188 -28.523438 11.015625 -27.671875 C 9.921875 -26.816406 9.375 -25.707031 9.375 -24.34375 C 9.375 -22.1875 11.066406 -20.382812 14.453125 -18.9375 L 18.40625 -17.28125 C 21.4375 -16.007812 23.65625 -14.679688 25.0625 -13.296875 C 26.46875 -11.910156 27.171875 -10.140625 27.171875 -7.984375 C 27.171875 -5.253906 26.050781 -3.128906 23.8125 -1.609375 C 21.570312 -0.0976562 18.671875 0.65625 15.109375 0.65625 Z M 15.109375 0.65625 " />
      </g>
    </g>
  </g>
</svg>
